%TF.GenerationSoftware,KiCad,Pcbnew,8.0.0*%
%TF.CreationDate,2024-03-27T17:24:56-03:00*%
%TF.ProjectId,Ponderada_S6,506f6e64-6572-4616-9461-5f53362e6b69,rev?*%
%TF.SameCoordinates,Original*%
%TF.FileFunction,Copper,L1,Top*%
%TF.FilePolarity,Positive*%
%FSLAX46Y46*%
G04 Gerber Fmt 4.6, Leading zero omitted, Abs format (unit mm)*
G04 Created by KiCad (PCBNEW 8.0.0) date 2024-03-27 17:24:56*
%MOMM*%
%LPD*%
G01*
G04 APERTURE LIST*
G04 Aperture macros list*
%AMRoundRect*
0 Rectangle with rounded corners*
0 $1 Rounding radius*
0 $2 $3 $4 $5 $6 $7 $8 $9 X,Y pos of 4 corners*
0 Add a 4 corners polygon primitive as box body*
4,1,4,$2,$3,$4,$5,$6,$7,$8,$9,$2,$3,0*
0 Add four circle primitives for the rounded corners*
1,1,$1+$1,$2,$3*
1,1,$1+$1,$4,$5*
1,1,$1+$1,$6,$7*
1,1,$1+$1,$8,$9*
0 Add four rect primitives between the rounded corners*
20,1,$1+$1,$2,$3,$4,$5,0*
20,1,$1+$1,$4,$5,$6,$7,0*
20,1,$1+$1,$6,$7,$8,$9,0*
20,1,$1+$1,$8,$9,$2,$3,0*%
G04 Aperture macros list end*
%TA.AperFunction,ComponentPad*%
%ADD10R,1.800000X1.800000*%
%TD*%
%TA.AperFunction,ComponentPad*%
%ADD11C,1.800000*%
%TD*%
%TA.AperFunction,ComponentPad*%
%ADD12C,1.400000*%
%TD*%
%TA.AperFunction,ComponentPad*%
%ADD13O,1.400000X1.400000*%
%TD*%
%TA.AperFunction,SMDPad,CuDef*%
%ADD14RoundRect,0.150000X0.150000X0.275000X-0.150000X0.275000X-0.150000X-0.275000X0.150000X-0.275000X0*%
%TD*%
%TA.AperFunction,SMDPad,CuDef*%
%ADD15RoundRect,0.187500X0.187500X0.362500X-0.187500X0.362500X-0.187500X-0.362500X0.187500X-0.362500X0*%
%TD*%
%TA.AperFunction,ComponentPad*%
%ADD16R,1.050000X1.500000*%
%TD*%
%TA.AperFunction,ComponentPad*%
%ADD17O,1.050000X1.500000*%
%TD*%
%TA.AperFunction,ComponentPad*%
%ADD18O,1.700000X1.700000*%
%TD*%
%TA.AperFunction,SMDPad,CuDef*%
%ADD19R,3.500000X1.700000*%
%TD*%
%TA.AperFunction,ComponentPad*%
%ADD20R,1.700000X1.700000*%
%TD*%
%TA.AperFunction,SMDPad,CuDef*%
%ADD21R,1.700000X3.500000*%
%TD*%
%TA.AperFunction,Conductor*%
%ADD22C,1.000000*%
%TD*%
%TA.AperFunction,Conductor*%
%ADD23C,0.200000*%
%TD*%
G04 APERTURE END LIST*
D10*
%TO.P,D1,1,K*%
%TO.N,Net-(D1-K)*%
X100330000Y-109220000D03*
D11*
%TO.P,D1,2,A*%
%TO.N,VCC*%
X97790000Y-109220000D03*
%TD*%
D12*
%TO.P,R3,1*%
%TO.N,Net-(Q1-C)*%
X105410000Y-135890000D03*
D13*
%TO.P,R3,2*%
%TO.N,VCC*%
X107950000Y-135890000D03*
%TD*%
D14*
%TO.P,J1,1,Pin_1*%
%TO.N,Net-(J1-Pin_1)*%
X104140000Y-128875000D03*
D15*
%TO.P,J1,MP,MountPin*%
%TO.N,unconnected-(J1-MountPin-PadMP)*%
X105415000Y-125250000D03*
X102865000Y-125250000D03*
%TD*%
D12*
%TO.P,R2,1*%
%TO.N,Net-(U1-GPIO20)*%
X96520000Y-124460000D03*
D13*
%TO.P,R2,2*%
%TO.N,Net-(Q1-B)*%
X99060000Y-124460000D03*
%TD*%
D12*
%TO.P,R1,1*%
%TO.N,Net-(D1-K)*%
X97790000Y-116840000D03*
D13*
%TO.P,R1,2*%
%TO.N,GND*%
X95250000Y-116840000D03*
%TD*%
D16*
%TO.P,Q1,1,C*%
%TO.N,Net-(Q1-C)*%
X97790000Y-134620000D03*
D17*
%TO.P,Q1,2,B*%
%TO.N,Net-(Q1-B)*%
X99060000Y-134620000D03*
%TO.P,Q1,3,E*%
%TO.N,Net-(J1-Pin_1)*%
X100330000Y-134620000D03*
%TD*%
D18*
%TO.P,U1,1,GPIO0*%
%TO.N,unconnected-(U1-GPIO0-Pad1)*%
X69850000Y-88900000D03*
D19*
X68950000Y-88900000D03*
D18*
%TO.P,U1,2,GPIO1*%
%TO.N,unconnected-(U1-GPIO1-Pad2)*%
X69850000Y-91440000D03*
D19*
X68950000Y-91440000D03*
D20*
%TO.P,U1,3,GND*%
%TO.N,unconnected-(U1-GND-Pad3)*%
X69850000Y-93980000D03*
D19*
X68950000Y-93980000D03*
D18*
%TO.P,U1,4,GPIO2*%
%TO.N,unconnected-(U1-GPIO2-Pad4)*%
X69850000Y-96520000D03*
D19*
X68950000Y-96520000D03*
D18*
%TO.P,U1,5,GPIO3*%
%TO.N,unconnected-(U1-GPIO3-Pad5)*%
X69850000Y-99060000D03*
D19*
X68950000Y-99060000D03*
D18*
%TO.P,U1,6,GPIO4*%
%TO.N,unconnected-(U1-GPIO4-Pad6)*%
X69850000Y-101600000D03*
D19*
X68950000Y-101600000D03*
D18*
%TO.P,U1,7,GPIO5*%
%TO.N,unconnected-(U1-GPIO5-Pad7)*%
X69850000Y-104140000D03*
D19*
X68950000Y-104140000D03*
D20*
%TO.P,U1,8,GND*%
%TO.N,unconnected-(U1-GND-Pad8)*%
X69850000Y-106680000D03*
D19*
X68950000Y-106680000D03*
D18*
%TO.P,U1,9,GPIO6*%
%TO.N,unconnected-(U1-GPIO6-Pad9)*%
X69850000Y-109220000D03*
D19*
X68950000Y-109220000D03*
D18*
%TO.P,U1,10,GPIO7*%
%TO.N,unconnected-(U1-GPIO7-Pad10)*%
X69850000Y-111760000D03*
D19*
X68950000Y-111760000D03*
D18*
%TO.P,U1,11,GPIO8*%
%TO.N,unconnected-(U1-GPIO8-Pad11)*%
X69850000Y-114300000D03*
D19*
X68950000Y-114300000D03*
D18*
%TO.P,U1,12,GPIO9*%
%TO.N,unconnected-(U1-GPIO9-Pad12)*%
X69850000Y-116840000D03*
D19*
X68950000Y-116840000D03*
D20*
%TO.P,U1,13,GND*%
%TO.N,unconnected-(U1-GND-Pad13)*%
X69850000Y-119380000D03*
D19*
X68950000Y-119380000D03*
D18*
%TO.P,U1,14,GPIO10*%
%TO.N,unconnected-(U1-GPIO10-Pad14)*%
X69850000Y-121920000D03*
D19*
X68950000Y-121920000D03*
D18*
%TO.P,U1,15,GPIO11*%
%TO.N,unconnected-(U1-GPIO11-Pad15)*%
X69850000Y-124460000D03*
D19*
X68950000Y-124460000D03*
D18*
%TO.P,U1,16,GPIO12*%
%TO.N,unconnected-(U1-GPIO12-Pad16)*%
X69850000Y-127000000D03*
D19*
X68950000Y-127000000D03*
D18*
%TO.P,U1,17,GPIO13*%
%TO.N,unconnected-(U1-GPIO13-Pad17)*%
X69850000Y-129540000D03*
D19*
X68950000Y-129540000D03*
D20*
%TO.P,U1,18,GND*%
%TO.N,unconnected-(U1-GND-Pad18)*%
X69850000Y-132080000D03*
D19*
X68950000Y-132080000D03*
D18*
%TO.P,U1,19,GPIO14*%
%TO.N,unconnected-(U1-GPIO14-Pad19)*%
X69850000Y-134620000D03*
D19*
X68950000Y-134620000D03*
D18*
%TO.P,U1,20,GPIO15*%
%TO.N,unconnected-(U1-GPIO15-Pad20)*%
X69850000Y-137160000D03*
D19*
X68950000Y-137160000D03*
D18*
%TO.P,U1,21,GPIO16*%
%TO.N,unconnected-(U1-GPIO16-Pad21)*%
X87630000Y-137160000D03*
D19*
X88530000Y-137160000D03*
D18*
%TO.P,U1,22,GPIO17*%
%TO.N,unconnected-(U1-GPIO17-Pad22)*%
X87630000Y-134620000D03*
D19*
X88530000Y-134620000D03*
D20*
%TO.P,U1,23,GND*%
%TO.N,unconnected-(U1-GND-Pad23)*%
X87630000Y-132080000D03*
D19*
X88530000Y-132080000D03*
D18*
%TO.P,U1,24,GPIO18*%
%TO.N,unconnected-(U1-GPIO18-Pad24)*%
X87630000Y-129540000D03*
D19*
X88530000Y-129540000D03*
D18*
%TO.P,U1,25,GPIO19*%
%TO.N,unconnected-(U1-GPIO19-Pad25)*%
X87630000Y-127000000D03*
D19*
X88530000Y-127000000D03*
D18*
%TO.P,U1,26,GPIO20*%
%TO.N,Net-(U1-GPIO20)*%
X87630000Y-124460000D03*
D19*
X88530000Y-124460000D03*
D18*
%TO.P,U1,27,GPIO21*%
%TO.N,unconnected-(U1-GPIO21-Pad27)*%
X87630000Y-121920000D03*
D19*
X88530000Y-121920000D03*
D20*
%TO.P,U1,28,GND*%
%TO.N,GND*%
X87630000Y-119380000D03*
D19*
X88530000Y-119380000D03*
D18*
%TO.P,U1,29,GPIO22*%
%TO.N,unconnected-(U1-GPIO22-Pad29)*%
X87630000Y-116840000D03*
D19*
X88530000Y-116840000D03*
D18*
%TO.P,U1,30,RUN*%
%TO.N,unconnected-(U1-RUN-Pad30)*%
X87630000Y-114300000D03*
D19*
X88530000Y-114300000D03*
D18*
%TO.P,U1,31,GPIO26_ADC0*%
%TO.N,unconnected-(U1-GPIO26_ADC0-Pad31)*%
X87630000Y-111760000D03*
D19*
X88530000Y-111760000D03*
D18*
%TO.P,U1,32,GPIO27_ADC1*%
%TO.N,unconnected-(U1-GPIO27_ADC1-Pad32)*%
X87630000Y-109220000D03*
D19*
X88530000Y-109220000D03*
D20*
%TO.P,U1,33,AGND*%
%TO.N,unconnected-(U1-AGND-Pad33)*%
X87630000Y-106680000D03*
D19*
X88530000Y-106680000D03*
D18*
%TO.P,U1,34,GPIO28_ADC2*%
%TO.N,unconnected-(U1-GPIO28_ADC2-Pad34)*%
X87630000Y-104140000D03*
D19*
X88530000Y-104140000D03*
D18*
%TO.P,U1,35,ADC_VREF*%
%TO.N,unconnected-(U1-ADC_VREF-Pad35)*%
X87630000Y-101600000D03*
D19*
X88530000Y-101600000D03*
D18*
%TO.P,U1,36,3V3*%
%TO.N,unconnected-(U1-3V3-Pad36)*%
X87630000Y-99060000D03*
D19*
X88530000Y-99060000D03*
D18*
%TO.P,U1,37,3V3_EN*%
%TO.N,unconnected-(U1-3V3_EN-Pad37)*%
X87630000Y-96520000D03*
D19*
X88530000Y-96520000D03*
D20*
%TO.P,U1,38,GND*%
%TO.N,unconnected-(U1-GND-Pad38)*%
X87630000Y-93980000D03*
D19*
X88530000Y-93980000D03*
D18*
%TO.P,U1,39,VSYS*%
%TO.N,VCC*%
X87630000Y-91440000D03*
D19*
X88530000Y-91440000D03*
D18*
%TO.P,U1,40,VBUS*%
%TO.N,unconnected-(U1-VBUS-Pad40)*%
X87630000Y-88900000D03*
D19*
X88530000Y-88900000D03*
D18*
%TO.P,U1,41,SWCLK*%
%TO.N,unconnected-(U1-SWCLK-Pad41)*%
X76200000Y-136930000D03*
D21*
X76200000Y-137830000D03*
D20*
%TO.P,U1,42,GND*%
%TO.N,unconnected-(U1-GND-Pad42)*%
X78740000Y-136930000D03*
D21*
X78740000Y-137830000D03*
D18*
%TO.P,U1,43,SWDIO*%
%TO.N,unconnected-(U1-SWDIO-Pad43)*%
X81280000Y-136930000D03*
D21*
X81280000Y-137830000D03*
%TD*%
D22*
%TO.N,Net-(Q1-C)*%
X102483146Y-138430000D02*
G75*
G03*
X105311550Y-137258404I-46J4000000D01*
G01*
X98961573Y-138331573D02*
G75*
G02*
X97789968Y-135503146I2828427J2828473D01*
G01*
%TO.N,Net-(J1-Pin_1)*%
X104140000Y-130423146D02*
G75*
G02*
X102968404Y-133251550I-4000000J46D01*
G01*
%TO.N,GND*%
X91053146Y-119380000D02*
G75*
G03*
X93881550Y-118208404I-46J4000000D01*
G01*
%TO.N,Net-(D1-K)*%
X100330000Y-112643146D02*
G75*
G02*
X99158404Y-115471550I-4000000J46D01*
G01*
%TO.N,VCC*%
X97790000Y-99446854D02*
G75*
G03*
X96618404Y-96618450I-4000000J-46D01*
G01*
X106778427Y-95348427D02*
G75*
G02*
X107950032Y-98176854I-2828427J-2828473D01*
G01*
X101213146Y-91440000D02*
G75*
G02*
X104041550Y-92611596I-46J-4000000D01*
G01*
X101213146Y-91440000D02*
X87630000Y-91440000D01*
X107950000Y-135890000D02*
X107950000Y-98176854D01*
X106778427Y-95348427D02*
X104041573Y-92611573D01*
%TO.N,Net-(Q1-C)*%
X99060000Y-138430000D02*
X102483146Y-138430000D01*
X105311573Y-137258427D02*
X105410000Y-137160000D01*
X97790000Y-134620000D02*
X97790000Y-135503146D01*
X98961573Y-138331573D02*
X99060000Y-138430000D01*
X105410000Y-137160000D02*
X105410000Y-135890000D01*
%TO.N,VCC*%
X97790000Y-109220000D02*
X97790000Y-99446854D01*
%TO.N,Net-(J1-Pin_1)*%
X104140000Y-130423146D02*
X104140000Y-128875000D01*
X101600000Y-134620000D02*
X102968427Y-133251573D01*
X100330000Y-134620000D02*
X101600000Y-134620000D01*
D23*
X104140000Y-128875000D02*
X104745000Y-128270000D01*
%TO.N,VCC*%
X91440000Y-91440000D02*
X87630000Y-91440000D01*
D22*
X96618427Y-96618427D02*
X91440000Y-91440000D01*
%TO.N,Net-(D1-K)*%
X97790000Y-116840000D02*
X99158427Y-115471573D01*
X100330000Y-112643146D02*
X100330000Y-109220000D01*
%TO.N,GND*%
X93881573Y-118208427D02*
X95250000Y-116840000D01*
X87630000Y-119380000D02*
X91053146Y-119380000D01*
%TO.N,Net-(Q1-B)*%
X99060000Y-124460000D02*
X99060000Y-134620000D01*
%TO.N,Net-(U1-GPIO20)*%
X87630000Y-124460000D02*
X96520000Y-124460000D01*
%TD*%
%TA.AperFunction,Conductor*%
%TO.N,GND*%
G36*
X91041257Y-92460185D02*
G01*
X91061899Y-92476819D01*
X95842298Y-97257219D01*
X95842305Y-97257227D01*
X95908828Y-97323750D01*
X95913024Y-97328157D01*
X96104559Y-97539480D01*
X96112279Y-97548886D01*
X96280374Y-97775532D01*
X96287135Y-97785650D01*
X96432208Y-98027684D01*
X96437944Y-98038416D01*
X96558589Y-98293492D01*
X96563246Y-98304735D01*
X96658310Y-98570413D01*
X96661842Y-98582057D01*
X96730410Y-98855781D01*
X96732785Y-98867717D01*
X96774190Y-99146834D01*
X96775383Y-99158943D01*
X96789351Y-99443181D01*
X96789500Y-99449267D01*
X96789500Y-108190621D01*
X96769815Y-108257660D01*
X96756730Y-108274603D01*
X96681022Y-108356844D01*
X96681020Y-108356846D01*
X96554075Y-108551151D01*
X96460842Y-108763699D01*
X96403866Y-108988691D01*
X96403864Y-108988702D01*
X96384700Y-109219993D01*
X96384700Y-109220006D01*
X96403864Y-109451297D01*
X96403866Y-109451308D01*
X96460842Y-109676300D01*
X96554075Y-109888848D01*
X96681016Y-110083147D01*
X96681019Y-110083151D01*
X96681021Y-110083153D01*
X96838216Y-110253913D01*
X96838219Y-110253915D01*
X96838222Y-110253918D01*
X97021365Y-110396464D01*
X97021371Y-110396468D01*
X97021374Y-110396470D01*
X97225497Y-110506936D01*
X97339487Y-110546068D01*
X97445015Y-110582297D01*
X97445017Y-110582297D01*
X97445019Y-110582298D01*
X97673951Y-110620500D01*
X97673952Y-110620500D01*
X97906048Y-110620500D01*
X97906049Y-110620500D01*
X98134981Y-110582298D01*
X98354503Y-110506936D01*
X98558626Y-110396470D01*
X98741784Y-110253913D01*
X98750130Y-110244846D01*
X98810010Y-110208854D01*
X98879849Y-110210949D01*
X98937468Y-110250469D01*
X98957544Y-110285491D01*
X98986203Y-110362330D01*
X98986206Y-110362335D01*
X99072452Y-110477544D01*
X99072455Y-110477547D01*
X99187664Y-110563793D01*
X99187669Y-110563796D01*
X99248833Y-110586608D01*
X99304766Y-110628478D01*
X99329184Y-110693942D01*
X99329500Y-110702790D01*
X99329500Y-112640080D01*
X99329351Y-112646166D01*
X99315351Y-112931052D01*
X99314158Y-112943162D01*
X99272753Y-113222277D01*
X99270379Y-113234212D01*
X99201813Y-113507932D01*
X99198280Y-113519577D01*
X99103216Y-113785253D01*
X99098559Y-113796495D01*
X98977916Y-114051568D01*
X98972180Y-114062300D01*
X98827105Y-114304336D01*
X98820344Y-114314453D01*
X98652259Y-114541087D01*
X98644539Y-114550494D01*
X98452564Y-114762302D01*
X98448369Y-114766709D01*
X98417041Y-114798037D01*
X98385416Y-114829662D01*
X98385411Y-114829667D01*
X98383430Y-114831649D01*
X98383429Y-114831649D01*
X97579009Y-115636069D01*
X97517686Y-115669554D01*
X97514115Y-115670276D01*
X97460068Y-115680380D01*
X97460060Y-115680382D01*
X97252601Y-115760751D01*
X97252595Y-115760754D01*
X97063439Y-115877874D01*
X97063437Y-115877876D01*
X96899020Y-116027761D01*
X96764943Y-116205308D01*
X96764938Y-116205316D01*
X96665775Y-116404461D01*
X96665770Y-116404474D01*
X96639006Y-116498540D01*
X96601726Y-116557633D01*
X96538417Y-116587190D01*
X96469177Y-116577828D01*
X96415991Y-116532518D01*
X96400473Y-116498538D01*
X96373760Y-116404650D01*
X96274631Y-116205574D01*
X96140608Y-116028099D01*
X95976261Y-115878278D01*
X95787179Y-115761202D01*
X95787177Y-115761201D01*
X95579799Y-115680864D01*
X95500000Y-115665946D01*
X95500000Y-116595025D01*
X95464905Y-116559930D01*
X95385095Y-116513852D01*
X95296078Y-116490000D01*
X95203922Y-116490000D01*
X95114905Y-116513852D01*
X95035095Y-116559930D01*
X94969930Y-116625095D01*
X94923852Y-116704905D01*
X94900000Y-116793922D01*
X94900000Y-116886078D01*
X94923852Y-116975095D01*
X94969930Y-117054905D01*
X95035095Y-117120070D01*
X95114905Y-117166148D01*
X95203922Y-117190000D01*
X95296078Y-117190000D01*
X95385095Y-117166148D01*
X95464905Y-117120070D01*
X95500000Y-117084975D01*
X95500000Y-118014052D01*
X95579804Y-117999135D01*
X95787177Y-117918798D01*
X95787179Y-117918797D01*
X95976261Y-117801721D01*
X96140608Y-117651900D01*
X96274631Y-117474425D01*
X96373760Y-117275349D01*
X96400473Y-117181461D01*
X96437752Y-117122367D01*
X96501061Y-117092809D01*
X96570301Y-117102170D01*
X96623488Y-117147480D01*
X96639006Y-117181459D01*
X96665770Y-117275525D01*
X96665775Y-117275538D01*
X96764938Y-117474683D01*
X96764943Y-117474691D01*
X96899020Y-117652238D01*
X97063437Y-117802123D01*
X97063439Y-117802125D01*
X97252595Y-117919245D01*
X97252596Y-117919245D01*
X97252599Y-117919247D01*
X97460060Y-117999618D01*
X97678757Y-118040500D01*
X97678759Y-118040500D01*
X97901241Y-118040500D01*
X97901243Y-118040500D01*
X98119940Y-117999618D01*
X98327401Y-117919247D01*
X98516562Y-117802124D01*
X98680981Y-117652236D01*
X98815058Y-117474689D01*
X98914229Y-117275528D01*
X98963013Y-117104064D01*
X98994596Y-117050322D01*
X99849076Y-116195844D01*
X99865882Y-116179039D01*
X99865881Y-116179038D01*
X99902192Y-116142729D01*
X99902201Y-116142719D01*
X99939750Y-116105170D01*
X99940175Y-116104700D01*
X100004771Y-116040106D01*
X100004771Y-116040105D01*
X100004785Y-116040092D01*
X100259980Y-115741302D01*
X100490947Y-115423410D01*
X100696260Y-115088376D01*
X100874653Y-114738267D01*
X101025028Y-114375241D01*
X101146457Y-114001535D01*
X101238190Y-113619454D01*
X101299664Y-113231354D01*
X101330498Y-112839627D01*
X101330498Y-112753528D01*
X101330500Y-112753507D01*
X101330500Y-112631401D01*
X101330501Y-112550448D01*
X101330500Y-112550442D01*
X101330500Y-110702790D01*
X101350185Y-110635751D01*
X101402989Y-110589996D01*
X101411146Y-110586616D01*
X101472331Y-110563796D01*
X101587546Y-110477546D01*
X101673796Y-110362331D01*
X101724091Y-110227483D01*
X101730500Y-110167873D01*
X101730499Y-108272128D01*
X101724091Y-108212517D01*
X101715924Y-108190621D01*
X101673797Y-108077671D01*
X101673793Y-108077664D01*
X101587547Y-107962455D01*
X101587544Y-107962452D01*
X101472335Y-107876206D01*
X101472328Y-107876202D01*
X101337482Y-107825908D01*
X101337483Y-107825908D01*
X101277883Y-107819501D01*
X101277881Y-107819500D01*
X101277873Y-107819500D01*
X101277864Y-107819500D01*
X99382129Y-107819500D01*
X99382123Y-107819501D01*
X99322516Y-107825908D01*
X99187671Y-107876202D01*
X99187664Y-107876206D01*
X99072455Y-107962452D01*
X99013766Y-108040850D01*
X98957832Y-108082720D01*
X98888140Y-108087704D01*
X98826817Y-108054218D01*
X98793333Y-107992894D01*
X98790500Y-107966538D01*
X98790500Y-99539557D01*
X98790501Y-99539552D01*
X98790500Y-99498237D01*
X98790532Y-99498126D01*
X98790530Y-99250377D01*
X98790530Y-99250372D01*
X98759695Y-98858642D01*
X98698222Y-98470540D01*
X98606487Y-98088456D01*
X98485058Y-97714748D01*
X98334682Y-97351720D01*
X98334679Y-97351714D01*
X98334677Y-97351709D01*
X98156293Y-97001617D01*
X98156286Y-97001605D01*
X98044049Y-96818456D01*
X97950973Y-96666573D01*
X97720005Y-96348678D01*
X97464808Y-96049886D01*
X97464799Y-96049877D01*
X97395345Y-95980423D01*
X97395340Y-95980419D01*
X94067101Y-92652181D01*
X94033616Y-92590858D01*
X94038600Y-92521166D01*
X94080472Y-92465233D01*
X94145936Y-92440816D01*
X94154782Y-92440500D01*
X101210080Y-92440500D01*
X101216166Y-92440649D01*
X101501053Y-92454648D01*
X101513160Y-92455840D01*
X101792292Y-92497249D01*
X101804198Y-92499617D01*
X102077942Y-92568189D01*
X102089567Y-92571716D01*
X102355263Y-92666787D01*
X102366484Y-92671435D01*
X102621575Y-92792086D01*
X102632293Y-92797815D01*
X102782200Y-92887668D01*
X102874336Y-92942894D01*
X102884453Y-92949655D01*
X103111094Y-93117745D01*
X103120488Y-93125455D01*
X103246396Y-93239573D01*
X103332302Y-93317435D01*
X103336709Y-93321631D01*
X103403981Y-93388903D01*
X103404003Y-93388923D01*
X106001777Y-95986697D01*
X106001800Y-95986722D01*
X106068828Y-96053749D01*
X106073024Y-96058157D01*
X106264559Y-96269480D01*
X106272279Y-96278886D01*
X106440374Y-96505532D01*
X106447135Y-96515650D01*
X106592208Y-96757684D01*
X106597944Y-96768416D01*
X106718589Y-97023492D01*
X106723246Y-97034735D01*
X106818310Y-97300413D01*
X106821842Y-97312057D01*
X106890410Y-97585781D01*
X106892785Y-97597717D01*
X106934190Y-97876834D01*
X106935383Y-97888943D01*
X106949351Y-98173181D01*
X106949500Y-98179267D01*
X106949500Y-135181229D01*
X106929815Y-135248268D01*
X106925234Y-135254837D01*
X106924944Y-135255305D01*
X106825775Y-135454461D01*
X106825769Y-135454476D01*
X106799266Y-135547627D01*
X106761987Y-135606721D01*
X106698677Y-135636278D01*
X106629438Y-135626916D01*
X106576251Y-135581606D01*
X106560734Y-135547627D01*
X106534230Y-135454476D01*
X106534229Y-135454472D01*
X106534224Y-135454461D01*
X106435061Y-135255316D01*
X106435056Y-135255308D01*
X106300979Y-135077761D01*
X106136562Y-134927876D01*
X106136560Y-134927874D01*
X105947404Y-134810754D01*
X105947398Y-134810752D01*
X105739940Y-134730382D01*
X105521243Y-134689500D01*
X105298757Y-134689500D01*
X105080060Y-134730382D01*
X104948864Y-134781207D01*
X104872601Y-134810752D01*
X104872595Y-134810754D01*
X104683439Y-134927874D01*
X104683437Y-134927876D01*
X104519020Y-135077761D01*
X104384943Y-135255308D01*
X104384938Y-135255316D01*
X104285775Y-135454461D01*
X104285769Y-135454476D01*
X104224885Y-135668462D01*
X104224884Y-135668464D01*
X104204357Y-135889999D01*
X104204357Y-135890000D01*
X104224884Y-136111535D01*
X104224885Y-136111537D01*
X104285769Y-136325523D01*
X104285775Y-136325538D01*
X104384938Y-136524683D01*
X104387959Y-136529561D01*
X104386805Y-136530275D01*
X104409145Y-136589389D01*
X104409500Y-136598769D01*
X104409500Y-136668810D01*
X104389815Y-136735849D01*
X104359367Y-136768407D01*
X104154466Y-136920374D01*
X104144349Y-136927135D01*
X103902315Y-137072208D01*
X103891583Y-137077944D01*
X103636507Y-137198589D01*
X103625264Y-137203246D01*
X103359586Y-137298310D01*
X103347942Y-137301842D01*
X103074218Y-137370410D01*
X103062282Y-137372785D01*
X102783165Y-137414190D01*
X102771056Y-137415383D01*
X102486817Y-137429351D01*
X102480731Y-137429500D01*
X99551190Y-137429500D01*
X99484151Y-137409815D01*
X99451593Y-137379368D01*
X99299625Y-137174467D01*
X99292864Y-137164349D01*
X99224095Y-137049617D01*
X99147787Y-136922308D01*
X99142055Y-136911583D01*
X99021405Y-136656496D01*
X99016753Y-136645264D01*
X99000116Y-136598769D01*
X98921688Y-136379583D01*
X98918157Y-136367942D01*
X98849589Y-136094218D01*
X98847214Y-136082281D01*
X98845046Y-136067668D01*
X98843060Y-136054279D01*
X98836892Y-136012694D01*
X98846527Y-135943492D01*
X98892046Y-135890485D01*
X98958997Y-135870501D01*
X98959550Y-135870500D01*
X99161004Y-135870500D01*
X99161005Y-135870499D01*
X99359127Y-135831091D01*
X99545756Y-135753786D01*
X99626110Y-135700094D01*
X99692786Y-135679217D01*
X99760166Y-135697701D01*
X99763865Y-135700078D01*
X99844244Y-135753786D01*
X100030873Y-135831091D01*
X100228992Y-135870499D01*
X100228996Y-135870500D01*
X100228997Y-135870500D01*
X100431004Y-135870500D01*
X100431005Y-135870499D01*
X100629127Y-135831091D01*
X100815756Y-135753786D01*
X100861615Y-135723144D01*
X100983958Y-135641398D01*
X101050636Y-135620520D01*
X101052849Y-135620500D01*
X101698542Y-135620500D01*
X101717870Y-135616655D01*
X101795188Y-135601275D01*
X101891836Y-135582051D01*
X101945165Y-135559961D01*
X102073914Y-135506632D01*
X102237782Y-135397139D01*
X102377139Y-135257782D01*
X102377140Y-135257779D01*
X102384206Y-135250714D01*
X102384208Y-135250710D01*
X103659076Y-133975844D01*
X103675882Y-133959039D01*
X103675881Y-133959038D01*
X103712192Y-133922729D01*
X103712201Y-133922719D01*
X103749750Y-133885170D01*
X103750175Y-133884700D01*
X103814771Y-133820106D01*
X103814771Y-133820105D01*
X103814785Y-133820092D01*
X104069980Y-133521302D01*
X104300947Y-133203410D01*
X104506260Y-132868376D01*
X104684653Y-132518267D01*
X104835028Y-132155241D01*
X104956457Y-131781535D01*
X105048190Y-131399454D01*
X105109664Y-131011354D01*
X105140498Y-130619627D01*
X105140498Y-130533528D01*
X105140500Y-130533507D01*
X105140500Y-130411401D01*
X105140501Y-130330448D01*
X105140500Y-130330442D01*
X105140500Y-128776459D01*
X105140500Y-128775097D01*
X105160185Y-128708058D01*
X105176820Y-128687415D01*
X105225516Y-128638719D01*
X105225516Y-128638718D01*
X105225519Y-128638716D01*
X105304577Y-128501785D01*
X105345500Y-128349058D01*
X105345500Y-128190943D01*
X105304577Y-128038215D01*
X105225519Y-127901284D01*
X105113716Y-127789481D01*
X105045250Y-127749952D01*
X104976786Y-127710423D01*
X104900421Y-127689961D01*
X104824057Y-127669500D01*
X104665942Y-127669500D01*
X104513214Y-127710423D01*
X104376284Y-127789481D01*
X104376280Y-127789484D01*
X104327582Y-127838182D01*
X104266259Y-127871666D01*
X104239902Y-127874500D01*
X104041457Y-127874500D01*
X103848170Y-127912947D01*
X103848160Y-127912950D01*
X103666092Y-127988364D01*
X103666079Y-127988371D01*
X103502218Y-128097860D01*
X103502214Y-128097863D01*
X103362863Y-128237214D01*
X103362860Y-128237218D01*
X103253371Y-128401079D01*
X103253364Y-128401092D01*
X103177950Y-128583160D01*
X103177947Y-128583170D01*
X103139500Y-128776456D01*
X103139500Y-130420080D01*
X103139351Y-130426166D01*
X103125351Y-130711052D01*
X103124158Y-130723162D01*
X103082753Y-131002277D01*
X103080379Y-131014212D01*
X103011813Y-131287932D01*
X103008280Y-131299577D01*
X102913216Y-131565253D01*
X102908559Y-131576495D01*
X102787916Y-131831568D01*
X102782180Y-131842300D01*
X102637105Y-132084336D01*
X102630344Y-132094453D01*
X102462259Y-132321087D01*
X102454539Y-132330494D01*
X102262564Y-132542302D01*
X102258369Y-132546709D01*
X102227041Y-132578037D01*
X102195416Y-132609662D01*
X102195411Y-132609667D01*
X102193430Y-132611649D01*
X102193429Y-132611649D01*
X102193418Y-132611660D01*
X101221899Y-133583181D01*
X101160576Y-133616666D01*
X101134218Y-133619500D01*
X101052849Y-133619500D01*
X100985810Y-133599815D01*
X100983958Y-133598602D01*
X100815762Y-133486217D01*
X100815752Y-133486212D01*
X100629127Y-133408909D01*
X100629119Y-133408907D01*
X100431007Y-133369500D01*
X100431003Y-133369500D01*
X100228997Y-133369500D01*
X100228996Y-133369500D01*
X100208688Y-133373539D01*
X100139097Y-133367310D01*
X100083921Y-133324446D01*
X100060678Y-133258555D01*
X100060500Y-133251921D01*
X100060500Y-125668114D01*
X101989500Y-125668114D01*
X101995798Y-125737423D01*
X101995799Y-125737428D01*
X102045504Y-125896937D01*
X102045505Y-125896939D01*
X102131935Y-126039913D01*
X102131939Y-126039918D01*
X102250081Y-126158060D01*
X102250086Y-126158064D01*
X102393060Y-126244494D01*
X102393064Y-126244496D01*
X102449486Y-126262077D01*
X102552574Y-126294201D01*
X102621893Y-126300500D01*
X103108106Y-126300499D01*
X103108113Y-126300499D01*
X103156630Y-126296090D01*
X103177426Y-126294201D01*
X103336938Y-126244495D01*
X103410529Y-126200007D01*
X103479913Y-126158064D01*
X103479914Y-126158062D01*
X103479919Y-126158060D01*
X103598060Y-126039919D01*
X103684495Y-125896938D01*
X103734201Y-125737426D01*
X103740499Y-125668114D01*
X104539500Y-125668114D01*
X104545798Y-125737423D01*
X104545799Y-125737428D01*
X104595504Y-125896937D01*
X104595505Y-125896939D01*
X104681935Y-126039913D01*
X104681939Y-126039918D01*
X104800081Y-126158060D01*
X104800086Y-126158064D01*
X104943060Y-126244494D01*
X104943064Y-126244496D01*
X104999486Y-126262077D01*
X105102574Y-126294201D01*
X105171893Y-126300500D01*
X105658106Y-126300499D01*
X105658113Y-126300499D01*
X105706630Y-126296090D01*
X105727426Y-126294201D01*
X105886938Y-126244495D01*
X105960529Y-126200007D01*
X106029913Y-126158064D01*
X106029914Y-126158062D01*
X106029919Y-126158060D01*
X106148060Y-126039919D01*
X106234495Y-125896938D01*
X106284201Y-125737426D01*
X106290500Y-125668107D01*
X106290499Y-124831894D01*
X106290499Y-124831893D01*
X106290499Y-124831885D01*
X106284201Y-124762576D01*
X106284200Y-124762571D01*
X106258948Y-124681536D01*
X106234495Y-124603062D01*
X106234494Y-124603060D01*
X106148064Y-124460086D01*
X106148060Y-124460081D01*
X106029918Y-124341939D01*
X106029913Y-124341935D01*
X105886939Y-124255505D01*
X105886935Y-124255503D01*
X105727426Y-124205799D01*
X105727427Y-124205799D01*
X105710096Y-124204224D01*
X105658107Y-124199500D01*
X105658104Y-124199500D01*
X105171885Y-124199500D01*
X105102576Y-124205798D01*
X105102571Y-124205799D01*
X104943062Y-124255504D01*
X104943060Y-124255505D01*
X104800086Y-124341935D01*
X104800081Y-124341939D01*
X104681939Y-124460081D01*
X104681935Y-124460086D01*
X104595505Y-124603060D01*
X104595503Y-124603064D01*
X104545799Y-124762572D01*
X104539500Y-124831895D01*
X104539500Y-125668114D01*
X103740499Y-125668114D01*
X103740500Y-125668107D01*
X103740499Y-124831894D01*
X103740499Y-124831893D01*
X103740499Y-124831885D01*
X103734201Y-124762576D01*
X103734200Y-124762571D01*
X103708948Y-124681536D01*
X103684495Y-124603062D01*
X103684494Y-124603060D01*
X103598064Y-124460086D01*
X103598060Y-124460081D01*
X103479918Y-124341939D01*
X103479913Y-124341935D01*
X103336939Y-124255505D01*
X103336935Y-124255503D01*
X103177426Y-124205799D01*
X103177427Y-124205799D01*
X103160096Y-124204224D01*
X103108107Y-124199500D01*
X103108104Y-124199500D01*
X102621885Y-124199500D01*
X102552576Y-124205798D01*
X102552571Y-124205799D01*
X102393062Y-124255504D01*
X102393060Y-124255505D01*
X102250086Y-124341935D01*
X102250081Y-124341939D01*
X102131939Y-124460081D01*
X102131935Y-124460086D01*
X102045505Y-124603060D01*
X102045503Y-124603064D01*
X101995799Y-124762572D01*
X101989500Y-124831895D01*
X101989500Y-125668114D01*
X100060500Y-125668114D01*
X100060500Y-125168769D01*
X100080185Y-125101730D01*
X100084761Y-125095167D01*
X100085056Y-125094691D01*
X100085058Y-125094689D01*
X100184229Y-124895528D01*
X100245115Y-124681536D01*
X100265643Y-124460000D01*
X100260678Y-124406423D01*
X100245115Y-124238464D01*
X100245114Y-124238462D01*
X100235820Y-124205798D01*
X100184229Y-124024472D01*
X100184224Y-124024461D01*
X100085061Y-123825316D01*
X100085056Y-123825308D01*
X99950979Y-123647761D01*
X99786562Y-123497876D01*
X99786560Y-123497874D01*
X99597404Y-123380754D01*
X99597398Y-123380752D01*
X99389940Y-123300382D01*
X99171243Y-123259500D01*
X98948757Y-123259500D01*
X98730060Y-123300382D01*
X98598864Y-123351207D01*
X98522601Y-123380752D01*
X98522595Y-123380754D01*
X98333439Y-123497874D01*
X98333437Y-123497876D01*
X98169020Y-123647761D01*
X98034943Y-123825308D01*
X98034938Y-123825316D01*
X97935775Y-124024461D01*
X97935769Y-124024476D01*
X97909266Y-124117627D01*
X97871987Y-124176721D01*
X97808677Y-124206278D01*
X97739438Y-124196916D01*
X97686251Y-124151606D01*
X97670734Y-124117627D01*
X97644230Y-124024476D01*
X97644229Y-124024472D01*
X97644224Y-124024461D01*
X97545061Y-123825316D01*
X97545056Y-123825308D01*
X97410979Y-123647761D01*
X97246562Y-123497876D01*
X97246560Y-123497874D01*
X97057404Y-123380754D01*
X97057398Y-123380752D01*
X96849940Y-123300382D01*
X96631243Y-123259500D01*
X96408757Y-123259500D01*
X96190060Y-123300382D01*
X96058864Y-123351207D01*
X95982601Y-123380752D01*
X95982595Y-123380754D01*
X95885414Y-123440927D01*
X95820137Y-123459500D01*
X90844141Y-123459500D01*
X90777102Y-123439815D01*
X90731347Y-123387011D01*
X90727969Y-123378859D01*
X90723796Y-123367669D01*
X90646421Y-123264309D01*
X90622004Y-123198848D01*
X90636855Y-123130575D01*
X90646416Y-123115696D01*
X90723796Y-123012331D01*
X90774091Y-122877483D01*
X90780500Y-122817873D01*
X90780499Y-121022128D01*
X90774091Y-120962517D01*
X90723796Y-120827669D01*
X90646109Y-120723893D01*
X90621692Y-120658430D01*
X90636543Y-120590157D01*
X90646110Y-120575271D01*
X90723352Y-120472089D01*
X90723354Y-120472086D01*
X90773596Y-120337379D01*
X90773598Y-120337372D01*
X90779999Y-120277844D01*
X90780000Y-120277827D01*
X90780000Y-119630000D01*
X88074560Y-119630000D01*
X88105245Y-119576853D01*
X88140000Y-119447143D01*
X88140000Y-119312857D01*
X88105245Y-119183147D01*
X88074560Y-119130000D01*
X90780000Y-119130000D01*
X90780000Y-118482172D01*
X90779999Y-118482155D01*
X90773598Y-118422627D01*
X90773596Y-118422620D01*
X90723354Y-118287913D01*
X90723352Y-118287910D01*
X90646110Y-118184729D01*
X90621692Y-118119265D01*
X90636543Y-118050992D01*
X90646105Y-118036111D01*
X90723796Y-117932331D01*
X90774091Y-117797483D01*
X90780500Y-117737873D01*
X90780499Y-117090000D01*
X94073505Y-117090000D01*
X94126239Y-117275349D01*
X94225368Y-117474425D01*
X94359391Y-117651900D01*
X94523738Y-117801721D01*
X94712820Y-117918797D01*
X94712822Y-117918798D01*
X94920195Y-117999135D01*
X95000000Y-118014052D01*
X95000000Y-117090000D01*
X94073505Y-117090000D01*
X90780499Y-117090000D01*
X90780499Y-116590000D01*
X94073505Y-116590000D01*
X95000000Y-116590000D01*
X95000000Y-115665946D01*
X94920200Y-115680864D01*
X94712822Y-115761201D01*
X94712820Y-115761202D01*
X94523738Y-115878278D01*
X94359391Y-116028099D01*
X94225368Y-116205574D01*
X94126239Y-116404650D01*
X94073505Y-116590000D01*
X90780499Y-116590000D01*
X90780499Y-115942128D01*
X90774091Y-115882517D01*
X90772359Y-115877874D01*
X90723797Y-115747671D01*
X90723795Y-115747668D01*
X90719034Y-115741308D01*
X90646421Y-115644309D01*
X90622004Y-115578848D01*
X90636855Y-115510575D01*
X90646416Y-115495696D01*
X90723796Y-115392331D01*
X90774091Y-115257483D01*
X90780500Y-115197873D01*
X90780499Y-113402128D01*
X90774091Y-113342517D01*
X90732627Y-113231347D01*
X90723797Y-113207671D01*
X90723795Y-113207668D01*
X90646421Y-113104309D01*
X90622004Y-113038848D01*
X90636855Y-112970575D01*
X90646416Y-112955696D01*
X90723796Y-112852331D01*
X90774091Y-112717483D01*
X90780500Y-112657873D01*
X90780499Y-110862128D01*
X90774091Y-110802517D01*
X90736895Y-110702790D01*
X90723797Y-110667671D01*
X90723795Y-110667668D01*
X90699902Y-110635751D01*
X90646421Y-110564309D01*
X90622004Y-110498848D01*
X90636855Y-110430575D01*
X90646416Y-110415696D01*
X90723796Y-110312331D01*
X90774091Y-110177483D01*
X90780500Y-110117873D01*
X90780499Y-108322128D01*
X90774091Y-108262517D01*
X90772279Y-108257660D01*
X90723797Y-108127671D01*
X90723795Y-108127668D01*
X90686367Y-108077671D01*
X90646421Y-108024309D01*
X90622004Y-107958848D01*
X90636855Y-107890575D01*
X90646416Y-107875696D01*
X90723796Y-107772331D01*
X90774091Y-107637483D01*
X90780500Y-107577873D01*
X90780499Y-105782128D01*
X90774091Y-105722517D01*
X90723796Y-105587669D01*
X90646421Y-105484309D01*
X90622004Y-105418848D01*
X90636855Y-105350575D01*
X90646416Y-105335696D01*
X90723796Y-105232331D01*
X90774091Y-105097483D01*
X90780500Y-105037873D01*
X90780499Y-103242128D01*
X90774091Y-103182517D01*
X90723796Y-103047669D01*
X90646421Y-102944309D01*
X90622004Y-102878848D01*
X90636855Y-102810575D01*
X90646416Y-102795696D01*
X90723796Y-102692331D01*
X90774091Y-102557483D01*
X90780500Y-102497873D01*
X90780499Y-100702128D01*
X90774091Y-100642517D01*
X90723796Y-100507669D01*
X90646421Y-100404309D01*
X90622004Y-100338848D01*
X90636855Y-100270575D01*
X90646416Y-100255696D01*
X90723796Y-100152331D01*
X90774091Y-100017483D01*
X90780500Y-99957873D01*
X90780499Y-98162128D01*
X90774091Y-98102517D01*
X90723796Y-97967669D01*
X90646421Y-97864309D01*
X90622004Y-97798848D01*
X90636855Y-97730575D01*
X90646416Y-97715696D01*
X90723796Y-97612331D01*
X90774091Y-97477483D01*
X90780500Y-97417873D01*
X90780499Y-95622128D01*
X90774091Y-95562517D01*
X90723796Y-95427669D01*
X90646421Y-95324309D01*
X90622004Y-95258848D01*
X90636855Y-95190575D01*
X90646416Y-95175696D01*
X90723796Y-95072331D01*
X90774091Y-94937483D01*
X90780500Y-94877873D01*
X90780499Y-93082128D01*
X90774091Y-93022517D01*
X90773748Y-93021598D01*
X90723797Y-92887671D01*
X90723795Y-92887668D01*
X90708231Y-92866877D01*
X90646421Y-92784309D01*
X90622004Y-92718848D01*
X90636855Y-92650575D01*
X90646416Y-92635696D01*
X90723796Y-92532331D01*
X90727960Y-92521165D01*
X90769829Y-92465234D01*
X90835293Y-92440816D01*
X90844141Y-92440500D01*
X90974218Y-92440500D01*
X91041257Y-92460185D01*
G37*
%TD.AperFunction*%
%TA.AperFunction,Conductor*%
G36*
X114243039Y-80029685D02*
G01*
X114288794Y-80082489D01*
X114300000Y-80134000D01*
X114300000Y-140846000D01*
X114280315Y-140913039D01*
X114227511Y-140958794D01*
X114176000Y-140970000D01*
X61084000Y-140970000D01*
X61016961Y-140950315D01*
X60971206Y-140897511D01*
X60960000Y-140846000D01*
X60960000Y-138057870D01*
X66699500Y-138057870D01*
X66699501Y-138057876D01*
X66705908Y-138117483D01*
X66756202Y-138252328D01*
X66756206Y-138252335D01*
X66842452Y-138367544D01*
X66842455Y-138367547D01*
X66957664Y-138453793D01*
X66957671Y-138453797D01*
X67092517Y-138504091D01*
X67092516Y-138504091D01*
X67099444Y-138504835D01*
X67152127Y-138510500D01*
X69785611Y-138510499D01*
X69796419Y-138510971D01*
X69849999Y-138515659D01*
X69850000Y-138515659D01*
X69850001Y-138515659D01*
X69903580Y-138510971D01*
X69914388Y-138510499D01*
X70747871Y-138510499D01*
X70747872Y-138510499D01*
X70807483Y-138504091D01*
X70942331Y-138453796D01*
X71057546Y-138367546D01*
X71143796Y-138252331D01*
X71194091Y-138117483D01*
X71200500Y-138057873D01*
X71200499Y-137224383D01*
X71200971Y-137213576D01*
X71205659Y-137160000D01*
X71205659Y-137159999D01*
X71200971Y-137106421D01*
X71200499Y-137095613D01*
X71200499Y-136930001D01*
X74844341Y-136930001D01*
X74849028Y-136983574D01*
X74849500Y-136994381D01*
X74849500Y-139627870D01*
X74849501Y-139627876D01*
X74855908Y-139687483D01*
X74906202Y-139822328D01*
X74906206Y-139822335D01*
X74992452Y-139937544D01*
X74992455Y-139937547D01*
X75107664Y-140023793D01*
X75107671Y-140023797D01*
X75242517Y-140074091D01*
X75242516Y-140074091D01*
X75249444Y-140074835D01*
X75302127Y-140080500D01*
X77097872Y-140080499D01*
X77157483Y-140074091D01*
X77292331Y-140023796D01*
X77395690Y-139946421D01*
X77461152Y-139922004D01*
X77529425Y-139936855D01*
X77544303Y-139946416D01*
X77647665Y-140023793D01*
X77647668Y-140023795D01*
X77647671Y-140023797D01*
X77782517Y-140074091D01*
X77782516Y-140074091D01*
X77789444Y-140074835D01*
X77842127Y-140080500D01*
X79637872Y-140080499D01*
X79697483Y-140074091D01*
X79832331Y-140023796D01*
X79935690Y-139946421D01*
X80001152Y-139922004D01*
X80069425Y-139936855D01*
X80084303Y-139946416D01*
X80187665Y-140023793D01*
X80187668Y-140023795D01*
X80187671Y-140023797D01*
X80322517Y-140074091D01*
X80322516Y-140074091D01*
X80329444Y-140074835D01*
X80382127Y-140080500D01*
X82177872Y-140080499D01*
X82237483Y-140074091D01*
X82372331Y-140023796D01*
X82487546Y-139937546D01*
X82573796Y-139822331D01*
X82624091Y-139687483D01*
X82630500Y-139627873D01*
X82630499Y-137160002D01*
X86274341Y-137160002D01*
X86279028Y-137213576D01*
X86279500Y-137224383D01*
X86279500Y-138057870D01*
X86279501Y-138057876D01*
X86285908Y-138117483D01*
X86336202Y-138252328D01*
X86336206Y-138252335D01*
X86422452Y-138367544D01*
X86422455Y-138367547D01*
X86537664Y-138453793D01*
X86537671Y-138453797D01*
X86672517Y-138504091D01*
X86672516Y-138504091D01*
X86679444Y-138504835D01*
X86732127Y-138510500D01*
X87565616Y-138510499D01*
X87576425Y-138510971D01*
X87630000Y-138515659D01*
X87683575Y-138510971D01*
X87694384Y-138510499D01*
X90327871Y-138510499D01*
X90327872Y-138510499D01*
X90387483Y-138504091D01*
X90522331Y-138453796D01*
X90637546Y-138367546D01*
X90723796Y-138252331D01*
X90774091Y-138117483D01*
X90780500Y-138057873D01*
X90780499Y-136262128D01*
X90774091Y-136202517D01*
X90755653Y-136153083D01*
X90723797Y-136067671D01*
X90723795Y-136067668D01*
X90697195Y-136032135D01*
X90646421Y-135964309D01*
X90622004Y-135898848D01*
X90636855Y-135830575D01*
X90646416Y-135815696D01*
X90723796Y-135712331D01*
X90774091Y-135577483D01*
X90780500Y-135517873D01*
X90780499Y-133722128D01*
X90774091Y-133662517D01*
X90761094Y-133627671D01*
X90723797Y-133527671D01*
X90723795Y-133527668D01*
X90719034Y-133521308D01*
X90646421Y-133424309D01*
X90622004Y-133358848D01*
X90636855Y-133290575D01*
X90646416Y-133275696D01*
X90723796Y-133172331D01*
X90774091Y-133037483D01*
X90780500Y-132977873D01*
X90780499Y-131182128D01*
X90774091Y-131122517D01*
X90732627Y-131011347D01*
X90723797Y-130987671D01*
X90723795Y-130987668D01*
X90646421Y-130884309D01*
X90622004Y-130818848D01*
X90636855Y-130750575D01*
X90646416Y-130735696D01*
X90723796Y-130632331D01*
X90774091Y-130497483D01*
X90780500Y-130437873D01*
X90780499Y-128642128D01*
X90774091Y-128582517D01*
X90723796Y-128447669D01*
X90646421Y-128344309D01*
X90622004Y-128278848D01*
X90636855Y-128210575D01*
X90646416Y-128195696D01*
X90723796Y-128092331D01*
X90774091Y-127957483D01*
X90780500Y-127897873D01*
X90780499Y-126102128D01*
X90774091Y-126042517D01*
X90723796Y-125907669D01*
X90646421Y-125804309D01*
X90622004Y-125738848D01*
X90636855Y-125670575D01*
X90646416Y-125655696D01*
X90723796Y-125552331D01*
X90727960Y-125541165D01*
X90769829Y-125485234D01*
X90835293Y-125460816D01*
X90844141Y-125460500D01*
X95820137Y-125460500D01*
X95885414Y-125479073D01*
X95982595Y-125539245D01*
X95982596Y-125539245D01*
X95982599Y-125539247D01*
X96190060Y-125619618D01*
X96408757Y-125660500D01*
X96408759Y-125660500D01*
X96631241Y-125660500D01*
X96631243Y-125660500D01*
X96849940Y-125619618D01*
X97057401Y-125539247D01*
X97246562Y-125422124D01*
X97410981Y-125272236D01*
X97545058Y-125094689D01*
X97644229Y-124895528D01*
X97670734Y-124802371D01*
X97708013Y-124743278D01*
X97771323Y-124713721D01*
X97840562Y-124723083D01*
X97893749Y-124768393D01*
X97909266Y-124802372D01*
X97935769Y-124895523D01*
X97935775Y-124895538D01*
X98034938Y-125094683D01*
X98037959Y-125099561D01*
X98036805Y-125100275D01*
X98059145Y-125159389D01*
X98059500Y-125168769D01*
X98059500Y-133245500D01*
X98039815Y-133312539D01*
X97987011Y-133358294D01*
X97935500Y-133369500D01*
X97217129Y-133369500D01*
X97217123Y-133369501D01*
X97157516Y-133375908D01*
X97022671Y-133426202D01*
X97022664Y-133426206D01*
X96907455Y-133512452D01*
X96907452Y-133512455D01*
X96821206Y-133627664D01*
X96821202Y-133627671D01*
X96770908Y-133762517D01*
X96764501Y-133822116D01*
X96764500Y-133822135D01*
X96764500Y-135417870D01*
X96764501Y-135417876D01*
X96770908Y-135477481D01*
X96781650Y-135506280D01*
X96789468Y-135549612D01*
X96789469Y-135699621D01*
X96789470Y-135699630D01*
X96820304Y-136091352D01*
X96820305Y-136091363D01*
X96881777Y-136479454D01*
X96881778Y-136479460D01*
X96973513Y-136861544D01*
X97094942Y-137235252D01*
X97206748Y-137505166D01*
X97245316Y-137598275D01*
X97245322Y-137598290D01*
X97423706Y-137948382D01*
X97423713Y-137948394D01*
X97434430Y-137965882D01*
X97629027Y-138283427D01*
X97629041Y-138283447D01*
X97629045Y-138283452D01*
X97690142Y-138367544D01*
X97859995Y-138601322D01*
X98115192Y-138900114D01*
X98115199Y-138900121D01*
X98115200Y-138900122D01*
X98195531Y-138980453D01*
X98195532Y-138980455D01*
X98278525Y-139063445D01*
X98278542Y-139063464D01*
X98422214Y-139207136D01*
X98422218Y-139207139D01*
X98586079Y-139316628D01*
X98586092Y-139316635D01*
X98714833Y-139369961D01*
X98757744Y-139387735D01*
X98768164Y-139392051D01*
X98864812Y-139411275D01*
X98913135Y-139420887D01*
X98961458Y-139430500D01*
X102390443Y-139430500D01*
X102390448Y-139430501D01*
X102431761Y-139430500D01*
X102431872Y-139430532D01*
X102483158Y-139430531D01*
X102483158Y-139430532D01*
X102679628Y-139430530D01*
X103071358Y-139399695D01*
X103459460Y-139338222D01*
X103841544Y-139246487D01*
X104215252Y-139125058D01*
X104578280Y-138974682D01*
X104928392Y-138796288D01*
X105263427Y-138590973D01*
X105581322Y-138360005D01*
X105880114Y-138104808D01*
X105960454Y-138024466D01*
X105960460Y-138024463D01*
X106003208Y-137981711D01*
X106019039Y-137965881D01*
X106019039Y-137965882D01*
X106047779Y-137937140D01*
X106047782Y-137937139D01*
X106187139Y-137797782D01*
X106296632Y-137633914D01*
X106349961Y-137505165D01*
X106372051Y-137451836D01*
X106410500Y-137258540D01*
X106410500Y-137061460D01*
X106410500Y-136598769D01*
X106430185Y-136531730D01*
X106434761Y-136525167D01*
X106435056Y-136524691D01*
X106435058Y-136524689D01*
X106534229Y-136325528D01*
X106560734Y-136232371D01*
X106598013Y-136173278D01*
X106661323Y-136143721D01*
X106730562Y-136153083D01*
X106783749Y-136198393D01*
X106799266Y-136232372D01*
X106825769Y-136325523D01*
X106825775Y-136325538D01*
X106924938Y-136524683D01*
X106924943Y-136524691D01*
X107059020Y-136702238D01*
X107223437Y-136852123D01*
X107223439Y-136852125D01*
X107412595Y-136969245D01*
X107412596Y-136969245D01*
X107412599Y-136969247D01*
X107620060Y-137049618D01*
X107838757Y-137090500D01*
X107838759Y-137090500D01*
X108061241Y-137090500D01*
X108061243Y-137090500D01*
X108279940Y-137049618D01*
X108487401Y-136969247D01*
X108676562Y-136852124D01*
X108840981Y-136702236D01*
X108975058Y-136524689D01*
X109074229Y-136325528D01*
X109135115Y-136111536D01*
X109155643Y-135890000D01*
X109151116Y-135841150D01*
X109135115Y-135668464D01*
X109135114Y-135668462D01*
X109131017Y-135654064D01*
X109074229Y-135454472D01*
X109056006Y-135417876D01*
X108975055Y-135255305D01*
X108972038Y-135250432D01*
X108973187Y-135249720D01*
X108950853Y-135190583D01*
X108950500Y-135181229D01*
X108950500Y-98269557D01*
X108950501Y-98269552D01*
X108950500Y-98228237D01*
X108950532Y-98228126D01*
X108950531Y-98162135D01*
X108950530Y-97980372D01*
X108919695Y-97588642D01*
X108858222Y-97200540D01*
X108766487Y-96818456D01*
X108645058Y-96444748D01*
X108494682Y-96081720D01*
X108494679Y-96081714D01*
X108494677Y-96081709D01*
X108316293Y-95731617D01*
X108316286Y-95731605D01*
X108249197Y-95622129D01*
X108110973Y-95396573D01*
X107880005Y-95078678D01*
X107624808Y-94779886D01*
X107544466Y-94699546D01*
X107544464Y-94699541D01*
X107453106Y-94608185D01*
X107453101Y-94608181D01*
X104765442Y-91920522D01*
X104765440Y-91920519D01*
X104765440Y-91920520D01*
X104749039Y-91904118D01*
X104731600Y-91886678D01*
X104731595Y-91886675D01*
X104675288Y-91830367D01*
X104674815Y-91829938D01*
X104610100Y-91765223D01*
X104610099Y-91765222D01*
X104610092Y-91765215D01*
X104311302Y-91510020D01*
X104311290Y-91510011D01*
X103993435Y-91279070D01*
X103993418Y-91279059D01*
X103993410Y-91279053D01*
X103658376Y-91073740D01*
X103658363Y-91073733D01*
X103658357Y-91073730D01*
X103308277Y-90895351D01*
X103308262Y-90895345D01*
X102945241Y-90744972D01*
X102571535Y-90623543D01*
X102337842Y-90567436D01*
X102189451Y-90531809D01*
X101801359Y-90470336D01*
X101801347Y-90470335D01*
X101409631Y-90439502D01*
X101409621Y-90439501D01*
X101317820Y-90439501D01*
X101317800Y-90439500D01*
X101311687Y-90439500D01*
X101213158Y-90439500D01*
X101120448Y-90439499D01*
X101120447Y-90439499D01*
X101114335Y-90439499D01*
X101114315Y-90439500D01*
X90844141Y-90439500D01*
X90777102Y-90419815D01*
X90731347Y-90367011D01*
X90727969Y-90358859D01*
X90723796Y-90347669D01*
X90646421Y-90244309D01*
X90622004Y-90178848D01*
X90636855Y-90110575D01*
X90646416Y-90095696D01*
X90723796Y-89992331D01*
X90774091Y-89857483D01*
X90780500Y-89797873D01*
X90780499Y-88002128D01*
X90774091Y-87942517D01*
X90740901Y-87853531D01*
X90723797Y-87807671D01*
X90723793Y-87807664D01*
X90637547Y-87692455D01*
X90637544Y-87692452D01*
X90522335Y-87606206D01*
X90522328Y-87606202D01*
X90387482Y-87555908D01*
X90387483Y-87555908D01*
X90327883Y-87549501D01*
X90327881Y-87549500D01*
X90327873Y-87549500D01*
X90327865Y-87549500D01*
X87694385Y-87549500D01*
X87683578Y-87549028D01*
X87630001Y-87544341D01*
X87629997Y-87544341D01*
X87576419Y-87549028D01*
X87565613Y-87549500D01*
X86732129Y-87549500D01*
X86732123Y-87549501D01*
X86672516Y-87555908D01*
X86537671Y-87606202D01*
X86537664Y-87606206D01*
X86422455Y-87692452D01*
X86422452Y-87692455D01*
X86336206Y-87807664D01*
X86336202Y-87807671D01*
X86285908Y-87942517D01*
X86280149Y-87996087D01*
X86279501Y-88002123D01*
X86279500Y-88002135D01*
X86279500Y-88835616D01*
X86279028Y-88846423D01*
X86274341Y-88899997D01*
X86274341Y-88900002D01*
X86279028Y-88953576D01*
X86279500Y-88964383D01*
X86279500Y-89797870D01*
X86279501Y-89797876D01*
X86285908Y-89857483D01*
X86336202Y-89992328D01*
X86336203Y-89992330D01*
X86413578Y-90095689D01*
X86437995Y-90161153D01*
X86423144Y-90229426D01*
X86413578Y-90244311D01*
X86336203Y-90347669D01*
X86336202Y-90347671D01*
X86285908Y-90482517D01*
X86280609Y-90531809D01*
X86279501Y-90542123D01*
X86279500Y-90542135D01*
X86279500Y-91375616D01*
X86279028Y-91386423D01*
X86274341Y-91439997D01*
X86274341Y-91440002D01*
X86279028Y-91493576D01*
X86279500Y-91504383D01*
X86279500Y-92337870D01*
X86279501Y-92337876D01*
X86285908Y-92397483D01*
X86336202Y-92532328D01*
X86336203Y-92532330D01*
X86413578Y-92635689D01*
X86437995Y-92701153D01*
X86423144Y-92769426D01*
X86413578Y-92784311D01*
X86336203Y-92887669D01*
X86336202Y-92887671D01*
X86285908Y-93022517D01*
X86279501Y-93082116D01*
X86279501Y-93082123D01*
X86279500Y-93082135D01*
X86279500Y-94877870D01*
X86279501Y-94877876D01*
X86285908Y-94937483D01*
X86336202Y-95072328D01*
X86336203Y-95072330D01*
X86413578Y-95175689D01*
X86437995Y-95241153D01*
X86423144Y-95309426D01*
X86413578Y-95324311D01*
X86336203Y-95427669D01*
X86336202Y-95427671D01*
X86285908Y-95562517D01*
X86279501Y-95622116D01*
X86279501Y-95622123D01*
X86279500Y-95622135D01*
X86279500Y-96455616D01*
X86279028Y-96466423D01*
X86274341Y-96519997D01*
X86274341Y-96520002D01*
X86279028Y-96573576D01*
X86279500Y-96584383D01*
X86279500Y-97417870D01*
X86279501Y-97417876D01*
X86285908Y-97477483D01*
X86336202Y-97612328D01*
X86336203Y-97612330D01*
X86336204Y-97612331D01*
X86412873Y-97714748D01*
X86413578Y-97715689D01*
X86437995Y-97781153D01*
X86423144Y-97849426D01*
X86413578Y-97864311D01*
X86336203Y-97967669D01*
X86336202Y-97967671D01*
X86285908Y-98102517D01*
X86279501Y-98162116D01*
X86279501Y-98162123D01*
X86279500Y-98162135D01*
X86279500Y-98995616D01*
X86279028Y-99006423D01*
X86274341Y-99059997D01*
X86274341Y-99060002D01*
X86279028Y-99113576D01*
X86279500Y-99124383D01*
X86279500Y-99957870D01*
X86279501Y-99957876D01*
X86285908Y-100017483D01*
X86336202Y-100152328D01*
X86336203Y-100152330D01*
X86413578Y-100255689D01*
X86437995Y-100321153D01*
X86423144Y-100389426D01*
X86413578Y-100404311D01*
X86336203Y-100507669D01*
X86336202Y-100507671D01*
X86285908Y-100642517D01*
X86279501Y-100702116D01*
X86279501Y-100702123D01*
X86279500Y-100702135D01*
X86279500Y-101535616D01*
X86279028Y-101546423D01*
X86274341Y-101599997D01*
X86274341Y-101600002D01*
X86279028Y-101653576D01*
X86279500Y-101664383D01*
X86279500Y-102497870D01*
X86279501Y-102497876D01*
X86285908Y-102557483D01*
X86336202Y-102692328D01*
X86336203Y-102692330D01*
X86413578Y-102795689D01*
X86437995Y-102861153D01*
X86423144Y-102929426D01*
X86413578Y-102944311D01*
X86336203Y-103047669D01*
X86336202Y-103047671D01*
X86285908Y-103182517D01*
X86279501Y-103242116D01*
X86279501Y-103242123D01*
X86279500Y-103242135D01*
X86279500Y-104075616D01*
X86279028Y-104086423D01*
X86274341Y-104139997D01*
X86274341Y-104140002D01*
X86279028Y-104193576D01*
X86279500Y-104204383D01*
X86279500Y-105037870D01*
X86279501Y-105037876D01*
X86285908Y-105097483D01*
X86336202Y-105232328D01*
X86336203Y-105232330D01*
X86413578Y-105335689D01*
X86437995Y-105401153D01*
X86423144Y-105469426D01*
X86413578Y-105484311D01*
X86336203Y-105587669D01*
X86336202Y-105587671D01*
X86285908Y-105722517D01*
X86279501Y-105782116D01*
X86279501Y-105782123D01*
X86279500Y-105782135D01*
X86279500Y-107577870D01*
X86279501Y-107577876D01*
X86285908Y-107637483D01*
X86336202Y-107772328D01*
X86336203Y-107772330D01*
X86413578Y-107875689D01*
X86437995Y-107941153D01*
X86423144Y-108009426D01*
X86413578Y-108024311D01*
X86336203Y-108127669D01*
X86336202Y-108127671D01*
X86285908Y-108262517D01*
X86279501Y-108322116D01*
X86279501Y-108322123D01*
X86279500Y-108322135D01*
X86279500Y-109155616D01*
X86279028Y-109166423D01*
X86274341Y-109219997D01*
X86274341Y-109220002D01*
X86279028Y-109273576D01*
X86279500Y-109284383D01*
X86279500Y-110117870D01*
X86279501Y-110117876D01*
X86285908Y-110177483D01*
X86336202Y-110312328D01*
X86336203Y-110312330D01*
X86336204Y-110312331D01*
X86399190Y-110396470D01*
X86413578Y-110415689D01*
X86437995Y-110481153D01*
X86423144Y-110549426D01*
X86413578Y-110564311D01*
X86336203Y-110667669D01*
X86336202Y-110667671D01*
X86285908Y-110802517D01*
X86279501Y-110862116D01*
X86279501Y-110862123D01*
X86279500Y-110862135D01*
X86279500Y-111695616D01*
X86279028Y-111706423D01*
X86274341Y-111759997D01*
X86274341Y-111760002D01*
X86279028Y-111813576D01*
X86279500Y-111824383D01*
X86279500Y-112657870D01*
X86279501Y-112657876D01*
X86285908Y-112717483D01*
X86336202Y-112852328D01*
X86336203Y-112852330D01*
X86413578Y-112955689D01*
X86437995Y-113021153D01*
X86423144Y-113089426D01*
X86413578Y-113104311D01*
X86336203Y-113207669D01*
X86336202Y-113207671D01*
X86285908Y-113342517D01*
X86279501Y-113402116D01*
X86279501Y-113402123D01*
X86279500Y-113402135D01*
X86279500Y-114235616D01*
X86279028Y-114246423D01*
X86274341Y-114299997D01*
X86274341Y-114300002D01*
X86279028Y-114353576D01*
X86279500Y-114364383D01*
X86279500Y-115197870D01*
X86279501Y-115197876D01*
X86285908Y-115257483D01*
X86336202Y-115392328D01*
X86336203Y-115392330D01*
X86413578Y-115495689D01*
X86437995Y-115561153D01*
X86423144Y-115629426D01*
X86413578Y-115644311D01*
X86336203Y-115747669D01*
X86336202Y-115747671D01*
X86285908Y-115882517D01*
X86279501Y-115942116D01*
X86279501Y-115942123D01*
X86279500Y-115942135D01*
X86279500Y-116775616D01*
X86279028Y-116786423D01*
X86274341Y-116839997D01*
X86274341Y-116840002D01*
X86279028Y-116893576D01*
X86279500Y-116904383D01*
X86279500Y-117737870D01*
X86279501Y-117737876D01*
X86285908Y-117797483D01*
X86336202Y-117932328D01*
X86336206Y-117932335D01*
X86413889Y-118036105D01*
X86438307Y-118101569D01*
X86423456Y-118169842D01*
X86413890Y-118184727D01*
X86336647Y-118287910D01*
X86336645Y-118287913D01*
X86286403Y-118422620D01*
X86286401Y-118422627D01*
X86280000Y-118482155D01*
X86280000Y-119130000D01*
X87185440Y-119130000D01*
X87154755Y-119183147D01*
X87120000Y-119312857D01*
X87120000Y-119447143D01*
X87154755Y-119576853D01*
X87185440Y-119630000D01*
X86280000Y-119630000D01*
X86280000Y-120277844D01*
X86286401Y-120337372D01*
X86286403Y-120337379D01*
X86336645Y-120472086D01*
X86336646Y-120472088D01*
X86413890Y-120575272D01*
X86438307Y-120640736D01*
X86423456Y-120709009D01*
X86413890Y-120723894D01*
X86336204Y-120827669D01*
X86336202Y-120827671D01*
X86285908Y-120962517D01*
X86279501Y-121022116D01*
X86279501Y-121022123D01*
X86279500Y-121022135D01*
X86279500Y-121855616D01*
X86279028Y-121866423D01*
X86274341Y-121919997D01*
X86274341Y-121920002D01*
X86279028Y-121973576D01*
X86279500Y-121984383D01*
X86279500Y-122817870D01*
X86279501Y-122817876D01*
X86285908Y-122877483D01*
X86336202Y-123012328D01*
X86336203Y-123012330D01*
X86413578Y-123115689D01*
X86437995Y-123181153D01*
X86423144Y-123249426D01*
X86413578Y-123264311D01*
X86336203Y-123367669D01*
X86336202Y-123367671D01*
X86285908Y-123502517D01*
X86279501Y-123562116D01*
X86279501Y-123562123D01*
X86279500Y-123562135D01*
X86279500Y-124395616D01*
X86279028Y-124406423D01*
X86274341Y-124459997D01*
X86274341Y-124460002D01*
X86279028Y-124513576D01*
X86279500Y-124524383D01*
X86279500Y-125357870D01*
X86279501Y-125357876D01*
X86285908Y-125417483D01*
X86336202Y-125552328D01*
X86336203Y-125552330D01*
X86413578Y-125655689D01*
X86437995Y-125721153D01*
X86423144Y-125789426D01*
X86413578Y-125804311D01*
X86336203Y-125907669D01*
X86336202Y-125907671D01*
X86285908Y-126042517D01*
X86279501Y-126102116D01*
X86279501Y-126102123D01*
X86279500Y-126102135D01*
X86279500Y-126935616D01*
X86279028Y-126946423D01*
X86274341Y-126999997D01*
X86274341Y-127000002D01*
X86279028Y-127053576D01*
X86279500Y-127064383D01*
X86279500Y-127897870D01*
X86279501Y-127897876D01*
X86285908Y-127957483D01*
X86336202Y-128092328D01*
X86336203Y-128092330D01*
X86336204Y-128092331D01*
X86410026Y-128190945D01*
X86413578Y-128195689D01*
X86437995Y-128261153D01*
X86423144Y-128329426D01*
X86413578Y-128344311D01*
X86336203Y-128447669D01*
X86336202Y-128447671D01*
X86285908Y-128582517D01*
X86279867Y-128638716D01*
X86279501Y-128642123D01*
X86279500Y-128642135D01*
X86279500Y-129475616D01*
X86279028Y-129486423D01*
X86274341Y-129539997D01*
X86274341Y-129540002D01*
X86279028Y-129593576D01*
X86279500Y-129604383D01*
X86279500Y-130437870D01*
X86279501Y-130437876D01*
X86285908Y-130497483D01*
X86336202Y-130632328D01*
X86336203Y-130632330D01*
X86413578Y-130735689D01*
X86437995Y-130801153D01*
X86423144Y-130869426D01*
X86413578Y-130884311D01*
X86336203Y-130987669D01*
X86336202Y-130987671D01*
X86285908Y-131122517D01*
X86279501Y-131182116D01*
X86279501Y-131182123D01*
X86279500Y-131182135D01*
X86279500Y-132977870D01*
X86279501Y-132977876D01*
X86285908Y-133037483D01*
X86336202Y-133172328D01*
X86336203Y-133172330D01*
X86413578Y-133275689D01*
X86437995Y-133341153D01*
X86423144Y-133409426D01*
X86413578Y-133424311D01*
X86336203Y-133527669D01*
X86336202Y-133527671D01*
X86285908Y-133662517D01*
X86279501Y-133722116D01*
X86279501Y-133722123D01*
X86279500Y-133722135D01*
X86279500Y-134555616D01*
X86279028Y-134566423D01*
X86274341Y-134619997D01*
X86274341Y-134620002D01*
X86279028Y-134673576D01*
X86279500Y-134684383D01*
X86279500Y-135517870D01*
X86279501Y-135517876D01*
X86285908Y-135577483D01*
X86336202Y-135712328D01*
X86336203Y-135712330D01*
X86413578Y-135815689D01*
X86437995Y-135881153D01*
X86423144Y-135949426D01*
X86413578Y-135964311D01*
X86336203Y-136067669D01*
X86336202Y-136067671D01*
X86285908Y-136202517D01*
X86282699Y-136232372D01*
X86279501Y-136262123D01*
X86279500Y-136262135D01*
X86279500Y-137095616D01*
X86279028Y-137106423D01*
X86274341Y-137159997D01*
X86274341Y-137160002D01*
X82630499Y-137160002D01*
X82630499Y-136994381D01*
X82630971Y-136983578D01*
X82635659Y-136930000D01*
X82635659Y-136929999D01*
X82630971Y-136876418D01*
X82630499Y-136865610D01*
X82630499Y-136032129D01*
X82630498Y-136032123D01*
X82630497Y-136032116D01*
X82624091Y-135972517D01*
X82621030Y-135964311D01*
X82573797Y-135837671D01*
X82573793Y-135837664D01*
X82487547Y-135722455D01*
X82487544Y-135722452D01*
X82372335Y-135636206D01*
X82372328Y-135636202D01*
X82237482Y-135585908D01*
X82237483Y-135585908D01*
X82177883Y-135579501D01*
X82177881Y-135579500D01*
X82177873Y-135579500D01*
X82177865Y-135579500D01*
X81344383Y-135579500D01*
X81333576Y-135579028D01*
X81280002Y-135574341D01*
X81279999Y-135574341D01*
X81244865Y-135577414D01*
X81226421Y-135579028D01*
X81215616Y-135579500D01*
X80382129Y-135579500D01*
X80382123Y-135579501D01*
X80322516Y-135585908D01*
X80187671Y-135636202D01*
X80187669Y-135636203D01*
X80084311Y-135713578D01*
X80018847Y-135737995D01*
X79950574Y-135723144D01*
X79935689Y-135713578D01*
X79832330Y-135636203D01*
X79832328Y-135636202D01*
X79697482Y-135585908D01*
X79697483Y-135585908D01*
X79637883Y-135579501D01*
X79637881Y-135579500D01*
X79637873Y-135579500D01*
X79637864Y-135579500D01*
X77842129Y-135579500D01*
X77842123Y-135579501D01*
X77782516Y-135585908D01*
X77647671Y-135636202D01*
X77647669Y-135636203D01*
X77544311Y-135713578D01*
X77478847Y-135737995D01*
X77410574Y-135723144D01*
X77395689Y-135713578D01*
X77292330Y-135636203D01*
X77292328Y-135636202D01*
X77157482Y-135585908D01*
X77157483Y-135585908D01*
X77097883Y-135579501D01*
X77097881Y-135579500D01*
X77097873Y-135579500D01*
X77097865Y-135579500D01*
X76264383Y-135579500D01*
X76253576Y-135579028D01*
X76200002Y-135574341D01*
X76199999Y-135574341D01*
X76164865Y-135577414D01*
X76146421Y-135579028D01*
X76135616Y-135579500D01*
X75302129Y-135579500D01*
X75302123Y-135579501D01*
X75242516Y-135585908D01*
X75107671Y-135636202D01*
X75107664Y-135636206D01*
X74992455Y-135722452D01*
X74992452Y-135722455D01*
X74906206Y-135837664D01*
X74906202Y-135837671D01*
X74855908Y-135972517D01*
X74851589Y-136012694D01*
X74849501Y-136032123D01*
X74849500Y-136032135D01*
X74849500Y-136865618D01*
X74849028Y-136876425D01*
X74844341Y-136929997D01*
X74844341Y-136930001D01*
X71200499Y-136930001D01*
X71200499Y-136262129D01*
X71200498Y-136262123D01*
X71200497Y-136262116D01*
X71194091Y-136202517D01*
X71175653Y-136153083D01*
X71143797Y-136067671D01*
X71143795Y-136067668D01*
X71117195Y-136032135D01*
X71066421Y-135964309D01*
X71042004Y-135898848D01*
X71056855Y-135830575D01*
X71066416Y-135815696D01*
X71143796Y-135712331D01*
X71194091Y-135577483D01*
X71200500Y-135517873D01*
X71200499Y-134684383D01*
X71200971Y-134673576D01*
X71205659Y-134620000D01*
X71205659Y-134619999D01*
X71200971Y-134566421D01*
X71200499Y-134555613D01*
X71200499Y-133722129D01*
X71200498Y-133722123D01*
X71200497Y-133722116D01*
X71194091Y-133662517D01*
X71181094Y-133627671D01*
X71143797Y-133527671D01*
X71143795Y-133527668D01*
X71139034Y-133521308D01*
X71066421Y-133424309D01*
X71042004Y-133358848D01*
X71056855Y-133290575D01*
X71066416Y-133275696D01*
X71143796Y-133172331D01*
X71194091Y-133037483D01*
X71200500Y-132977873D01*
X71200499Y-131182128D01*
X71194091Y-131122517D01*
X71152627Y-131011347D01*
X71143797Y-130987671D01*
X71143795Y-130987668D01*
X71066421Y-130884309D01*
X71042004Y-130818848D01*
X71056855Y-130750575D01*
X71066416Y-130735696D01*
X71143796Y-130632331D01*
X71194091Y-130497483D01*
X71200500Y-130437873D01*
X71200499Y-129604383D01*
X71200971Y-129593576D01*
X71205659Y-129540000D01*
X71205659Y-129539999D01*
X71200971Y-129486421D01*
X71200499Y-129475613D01*
X71200499Y-128642129D01*
X71200498Y-128642123D01*
X71200497Y-128642116D01*
X71194091Y-128582517D01*
X71143796Y-128447669D01*
X71066421Y-128344309D01*
X71042004Y-128278848D01*
X71056855Y-128210575D01*
X71066416Y-128195696D01*
X71143796Y-128092331D01*
X71194091Y-127957483D01*
X71200500Y-127897873D01*
X71200499Y-127064383D01*
X71200971Y-127053576D01*
X71205659Y-127000000D01*
X71205659Y-126999999D01*
X71200971Y-126946421D01*
X71200499Y-126935613D01*
X71200499Y-126102129D01*
X71200498Y-126102123D01*
X71200497Y-126102116D01*
X71194091Y-126042517D01*
X71143796Y-125907669D01*
X71066421Y-125804309D01*
X71042004Y-125738848D01*
X71056855Y-125670575D01*
X71066416Y-125655696D01*
X71143796Y-125552331D01*
X71194091Y-125417483D01*
X71200500Y-125357873D01*
X71200499Y-124524383D01*
X71200971Y-124513576D01*
X71205659Y-124460000D01*
X71205659Y-124459999D01*
X71200971Y-124406421D01*
X71200499Y-124395613D01*
X71200499Y-123562129D01*
X71200498Y-123562123D01*
X71200497Y-123562116D01*
X71194091Y-123502517D01*
X71192359Y-123497874D01*
X71143797Y-123367671D01*
X71143795Y-123367668D01*
X71143794Y-123367666D01*
X71066421Y-123264309D01*
X71042004Y-123198848D01*
X71056855Y-123130575D01*
X71066416Y-123115696D01*
X71143796Y-123012331D01*
X71194091Y-122877483D01*
X71200500Y-122817873D01*
X71200499Y-121984383D01*
X71200971Y-121973576D01*
X71205659Y-121920000D01*
X71205659Y-121919999D01*
X71200971Y-121866421D01*
X71200499Y-121855613D01*
X71200499Y-121022129D01*
X71200498Y-121022123D01*
X71200497Y-121022116D01*
X71194091Y-120962517D01*
X71143796Y-120827669D01*
X71066421Y-120724309D01*
X71042004Y-120658848D01*
X71056855Y-120590575D01*
X71066416Y-120575696D01*
X71143796Y-120472331D01*
X71194091Y-120337483D01*
X71200500Y-120277873D01*
X71200499Y-118482128D01*
X71194091Y-118422517D01*
X71143796Y-118287669D01*
X71066421Y-118184309D01*
X71042004Y-118118848D01*
X71056855Y-118050575D01*
X71066416Y-118035696D01*
X71143796Y-117932331D01*
X71194091Y-117797483D01*
X71200500Y-117737873D01*
X71200499Y-116904383D01*
X71200971Y-116893576D01*
X71205659Y-116840000D01*
X71205659Y-116839999D01*
X71200971Y-116786421D01*
X71200499Y-116775613D01*
X71200499Y-115942129D01*
X71200498Y-115942123D01*
X71200497Y-115942116D01*
X71194091Y-115882517D01*
X71192359Y-115877874D01*
X71143797Y-115747671D01*
X71143795Y-115747668D01*
X71139034Y-115741308D01*
X71066421Y-115644309D01*
X71042004Y-115578848D01*
X71056855Y-115510575D01*
X71066416Y-115495696D01*
X71143796Y-115392331D01*
X71194091Y-115257483D01*
X71200500Y-115197873D01*
X71200499Y-114364383D01*
X71200971Y-114353576D01*
X71205659Y-114300000D01*
X71205659Y-114299999D01*
X71200971Y-114246421D01*
X71200499Y-114235613D01*
X71200499Y-113402129D01*
X71200498Y-113402123D01*
X71200497Y-113402116D01*
X71194091Y-113342517D01*
X71152627Y-113231347D01*
X71143797Y-113207671D01*
X71143795Y-113207668D01*
X71066421Y-113104309D01*
X71042004Y-113038848D01*
X71056855Y-112970575D01*
X71066416Y-112955696D01*
X71143796Y-112852331D01*
X71194091Y-112717483D01*
X71200500Y-112657873D01*
X71200499Y-111824383D01*
X71200971Y-111813576D01*
X71205659Y-111760000D01*
X71205659Y-111759999D01*
X71200971Y-111706421D01*
X71200499Y-111695613D01*
X71200499Y-110862129D01*
X71200498Y-110862123D01*
X71200497Y-110862116D01*
X71194091Y-110802517D01*
X71156895Y-110702790D01*
X71143797Y-110667671D01*
X71143795Y-110667668D01*
X71119902Y-110635751D01*
X71066421Y-110564309D01*
X71042004Y-110498848D01*
X71056855Y-110430575D01*
X71066416Y-110415696D01*
X71143796Y-110312331D01*
X71194091Y-110177483D01*
X71200500Y-110117873D01*
X71200499Y-109284383D01*
X71200971Y-109273576D01*
X71205659Y-109220000D01*
X71205659Y-109219999D01*
X71200971Y-109166421D01*
X71200499Y-109155613D01*
X71200499Y-108322129D01*
X71200498Y-108322123D01*
X71200497Y-108322116D01*
X71194091Y-108262517D01*
X71192279Y-108257660D01*
X71143797Y-108127671D01*
X71143795Y-108127668D01*
X71106367Y-108077671D01*
X71066421Y-108024309D01*
X71042004Y-107958848D01*
X71056855Y-107890575D01*
X71066416Y-107875696D01*
X71143796Y-107772331D01*
X71194091Y-107637483D01*
X71200500Y-107577873D01*
X71200499Y-105782128D01*
X71194091Y-105722517D01*
X71143796Y-105587669D01*
X71066421Y-105484309D01*
X71042004Y-105418848D01*
X71056855Y-105350575D01*
X71066416Y-105335696D01*
X71143796Y-105232331D01*
X71194091Y-105097483D01*
X71200500Y-105037873D01*
X71200499Y-104204383D01*
X71200971Y-104193576D01*
X71205659Y-104140000D01*
X71205659Y-104139999D01*
X71200971Y-104086421D01*
X71200499Y-104075613D01*
X71200499Y-103242129D01*
X71200498Y-103242123D01*
X71200497Y-103242116D01*
X71194091Y-103182517D01*
X71143796Y-103047669D01*
X71066421Y-102944309D01*
X71042004Y-102878848D01*
X71056855Y-102810575D01*
X71066416Y-102795696D01*
X71143796Y-102692331D01*
X71194091Y-102557483D01*
X71200500Y-102497873D01*
X71200499Y-101664383D01*
X71200971Y-101653576D01*
X71205659Y-101600000D01*
X71205659Y-101599999D01*
X71200971Y-101546421D01*
X71200499Y-101535613D01*
X71200499Y-100702129D01*
X71200498Y-100702123D01*
X71200497Y-100702116D01*
X71194091Y-100642517D01*
X71143796Y-100507669D01*
X71066421Y-100404309D01*
X71042004Y-100338848D01*
X71056855Y-100270575D01*
X71066416Y-100255696D01*
X71143796Y-100152331D01*
X71194091Y-100017483D01*
X71200500Y-99957873D01*
X71200499Y-99124383D01*
X71200971Y-99113576D01*
X71205659Y-99060000D01*
X71205659Y-99059999D01*
X71200971Y-99006421D01*
X71200499Y-98995613D01*
X71200499Y-98162129D01*
X71200498Y-98162123D01*
X71200497Y-98162116D01*
X71194091Y-98102517D01*
X71143796Y-97967669D01*
X71066421Y-97864309D01*
X71042004Y-97798848D01*
X71056855Y-97730575D01*
X71066416Y-97715696D01*
X71143796Y-97612331D01*
X71194091Y-97477483D01*
X71200500Y-97417873D01*
X71200499Y-96584383D01*
X71200971Y-96573576D01*
X71205659Y-96520000D01*
X71205659Y-96519999D01*
X71200971Y-96466421D01*
X71200499Y-96455613D01*
X71200499Y-95622129D01*
X71200498Y-95622123D01*
X71200497Y-95622116D01*
X71194091Y-95562517D01*
X71143796Y-95427669D01*
X71066421Y-95324309D01*
X71042004Y-95258848D01*
X71056855Y-95190575D01*
X71066416Y-95175696D01*
X71143796Y-95072331D01*
X71194091Y-94937483D01*
X71200500Y-94877873D01*
X71200499Y-93082128D01*
X71194091Y-93022517D01*
X71193748Y-93021598D01*
X71143797Y-92887671D01*
X71143795Y-92887668D01*
X71128231Y-92866877D01*
X71066421Y-92784309D01*
X71042004Y-92718848D01*
X71056855Y-92650575D01*
X71066416Y-92635696D01*
X71143796Y-92532331D01*
X71194091Y-92397483D01*
X71200500Y-92337873D01*
X71200500Y-92060002D01*
X75059723Y-92060002D01*
X75078793Y-92277975D01*
X75078793Y-92277979D01*
X75135422Y-92489322D01*
X75135424Y-92489326D01*
X75135425Y-92489330D01*
X75155477Y-92532331D01*
X75227897Y-92687638D01*
X75243555Y-92710000D01*
X75353402Y-92866877D01*
X75508123Y-93021598D01*
X75687361Y-93147102D01*
X75885670Y-93239575D01*
X76097023Y-93296207D01*
X76279926Y-93312208D01*
X76314998Y-93315277D01*
X76315000Y-93315277D01*
X76315002Y-93315277D01*
X76343254Y-93312805D01*
X76532977Y-93296207D01*
X76744330Y-93239575D01*
X76942639Y-93147102D01*
X77121877Y-93021598D01*
X77276598Y-92866877D01*
X77402102Y-92687639D01*
X77494575Y-92489330D01*
X77551207Y-92277977D01*
X77570277Y-92060002D01*
X79909723Y-92060002D01*
X79928793Y-92277975D01*
X79928793Y-92277979D01*
X79985422Y-92489322D01*
X79985424Y-92489326D01*
X79985425Y-92489330D01*
X80005477Y-92532331D01*
X80077897Y-92687638D01*
X80093555Y-92710000D01*
X80203402Y-92866877D01*
X80358123Y-93021598D01*
X80537361Y-93147102D01*
X80735670Y-93239575D01*
X80947023Y-93296207D01*
X81129926Y-93312208D01*
X81164998Y-93315277D01*
X81165000Y-93315277D01*
X81165002Y-93315277D01*
X81193254Y-93312805D01*
X81382977Y-93296207D01*
X81594330Y-93239575D01*
X81792639Y-93147102D01*
X81971877Y-93021598D01*
X82126598Y-92866877D01*
X82252102Y-92687639D01*
X82344575Y-92489330D01*
X82401207Y-92277977D01*
X82420277Y-92060000D01*
X82401207Y-91842023D01*
X82344575Y-91630670D01*
X82252102Y-91432362D01*
X82252100Y-91432359D01*
X82252099Y-91432357D01*
X82126599Y-91253124D01*
X82126596Y-91253121D01*
X81971877Y-91098402D01*
X81792639Y-90972898D01*
X81792640Y-90972898D01*
X81792638Y-90972897D01*
X81693484Y-90926661D01*
X81594330Y-90880425D01*
X81594326Y-90880424D01*
X81594322Y-90880422D01*
X81382977Y-90823793D01*
X81165002Y-90804723D01*
X81164998Y-90804723D01*
X81019682Y-90817436D01*
X80947023Y-90823793D01*
X80947020Y-90823793D01*
X80735677Y-90880422D01*
X80735668Y-90880426D01*
X80537361Y-90972898D01*
X80537357Y-90972900D01*
X80358121Y-91098402D01*
X80203402Y-91253121D01*
X80077900Y-91432357D01*
X80077898Y-91432361D01*
X79985426Y-91630668D01*
X79985422Y-91630677D01*
X79928793Y-91842020D01*
X79928793Y-91842024D01*
X79909723Y-92059997D01*
X79909723Y-92060002D01*
X77570277Y-92060002D01*
X77570277Y-92060000D01*
X77551207Y-91842023D01*
X77494575Y-91630670D01*
X77402102Y-91432362D01*
X77402100Y-91432359D01*
X77402099Y-91432357D01*
X77276599Y-91253124D01*
X77276596Y-91253121D01*
X77121877Y-91098402D01*
X76942639Y-90972898D01*
X76942640Y-90972898D01*
X76942638Y-90972897D01*
X76843484Y-90926661D01*
X76744330Y-90880425D01*
X76744326Y-90880424D01*
X76744322Y-90880422D01*
X76532977Y-90823793D01*
X76315002Y-90804723D01*
X76314998Y-90804723D01*
X76169682Y-90817436D01*
X76097023Y-90823793D01*
X76097020Y-90823793D01*
X75885677Y-90880422D01*
X75885668Y-90880426D01*
X75687361Y-90972898D01*
X75687357Y-90972900D01*
X75508121Y-91098402D01*
X75353402Y-91253121D01*
X75227900Y-91432357D01*
X75227898Y-91432361D01*
X75135426Y-91630668D01*
X75135422Y-91630677D01*
X75078793Y-91842020D01*
X75078793Y-91842024D01*
X75059723Y-92059997D01*
X75059723Y-92060002D01*
X71200500Y-92060002D01*
X71200499Y-91504383D01*
X71200971Y-91493576D01*
X71205659Y-91440000D01*
X71205659Y-91439999D01*
X71200971Y-91386421D01*
X71200499Y-91375613D01*
X71200499Y-90542129D01*
X71200498Y-90542123D01*
X71200497Y-90542116D01*
X71194091Y-90482517D01*
X71189547Y-90470335D01*
X71143797Y-90347671D01*
X71143795Y-90347668D01*
X71143794Y-90347666D01*
X71066421Y-90244309D01*
X71042004Y-90178848D01*
X71056855Y-90110575D01*
X71066416Y-90095696D01*
X71143796Y-89992331D01*
X71194091Y-89857483D01*
X71200500Y-89797873D01*
X71200499Y-89030006D01*
X74609700Y-89030006D01*
X74628864Y-89261297D01*
X74628866Y-89261308D01*
X74685842Y-89486300D01*
X74779075Y-89698848D01*
X74906016Y-89893147D01*
X74906019Y-89893151D01*
X74906021Y-89893153D01*
X75063216Y-90063913D01*
X75063219Y-90063915D01*
X75063222Y-90063918D01*
X75246365Y-90206464D01*
X75246371Y-90206468D01*
X75246374Y-90206470D01*
X75450497Y-90316936D01*
X75540019Y-90347669D01*
X75670015Y-90392297D01*
X75670017Y-90392297D01*
X75670019Y-90392298D01*
X75898951Y-90430500D01*
X75898952Y-90430500D01*
X76131048Y-90430500D01*
X76131049Y-90430500D01*
X76359981Y-90392298D01*
X76579503Y-90316936D01*
X76783626Y-90206470D01*
X76966784Y-90063913D01*
X77123979Y-89893153D01*
X77250924Y-89698849D01*
X77344157Y-89486300D01*
X77401134Y-89261305D01*
X77420300Y-89030006D01*
X80059700Y-89030006D01*
X80078864Y-89261297D01*
X80078866Y-89261308D01*
X80135842Y-89486300D01*
X80229075Y-89698848D01*
X80356016Y-89893147D01*
X80356019Y-89893151D01*
X80356021Y-89893153D01*
X80513216Y-90063913D01*
X80513219Y-90063915D01*
X80513222Y-90063918D01*
X80696365Y-90206464D01*
X80696371Y-90206468D01*
X80696374Y-90206470D01*
X80900497Y-90316936D01*
X80990019Y-90347669D01*
X81120015Y-90392297D01*
X81120017Y-90392297D01*
X81120019Y-90392298D01*
X81348951Y-90430500D01*
X81348952Y-90430500D01*
X81581048Y-90430500D01*
X81581049Y-90430500D01*
X81809981Y-90392298D01*
X82029503Y-90316936D01*
X82233626Y-90206470D01*
X82416784Y-90063913D01*
X82573979Y-89893153D01*
X82700924Y-89698849D01*
X82794157Y-89486300D01*
X82851134Y-89261305D01*
X82870300Y-89030000D01*
X82870300Y-89029993D01*
X82851135Y-88798702D01*
X82851133Y-88798691D01*
X82794157Y-88573699D01*
X82700924Y-88361151D01*
X82573983Y-88166852D01*
X82573980Y-88166849D01*
X82573979Y-88166847D01*
X82416784Y-87996087D01*
X82416779Y-87996083D01*
X82416777Y-87996081D01*
X82233634Y-87853535D01*
X82233628Y-87853531D01*
X82029504Y-87743064D01*
X82029495Y-87743061D01*
X81809984Y-87667702D01*
X81638282Y-87639050D01*
X81581049Y-87629500D01*
X81348951Y-87629500D01*
X81303164Y-87637140D01*
X81120015Y-87667702D01*
X80900504Y-87743061D01*
X80900495Y-87743064D01*
X80696371Y-87853531D01*
X80696365Y-87853535D01*
X80513222Y-87996081D01*
X80513219Y-87996084D01*
X80513216Y-87996086D01*
X80513216Y-87996087D01*
X80454267Y-88060122D01*
X80356016Y-88166852D01*
X80229075Y-88361151D01*
X80135842Y-88573699D01*
X80078866Y-88798691D01*
X80078864Y-88798702D01*
X80059700Y-89029993D01*
X80059700Y-89030006D01*
X77420300Y-89030006D01*
X77420300Y-89030000D01*
X77420300Y-89029993D01*
X77401135Y-88798702D01*
X77401133Y-88798691D01*
X77344157Y-88573699D01*
X77250924Y-88361151D01*
X77123983Y-88166852D01*
X77123980Y-88166849D01*
X77123979Y-88166847D01*
X76966784Y-87996087D01*
X76966779Y-87996083D01*
X76966777Y-87996081D01*
X76783634Y-87853535D01*
X76783628Y-87853531D01*
X76579504Y-87743064D01*
X76579495Y-87743061D01*
X76359984Y-87667702D01*
X76188282Y-87639050D01*
X76131049Y-87629500D01*
X75898951Y-87629500D01*
X75853164Y-87637140D01*
X75670015Y-87667702D01*
X75450504Y-87743061D01*
X75450495Y-87743064D01*
X75246371Y-87853531D01*
X75246365Y-87853535D01*
X75063222Y-87996081D01*
X75063219Y-87996084D01*
X75063216Y-87996086D01*
X75063216Y-87996087D01*
X75004267Y-88060122D01*
X74906016Y-88166852D01*
X74779075Y-88361151D01*
X74685842Y-88573699D01*
X74628866Y-88798691D01*
X74628864Y-88798702D01*
X74609700Y-89029993D01*
X74609700Y-89030006D01*
X71200499Y-89030006D01*
X71200499Y-88964383D01*
X71200971Y-88953576D01*
X71205659Y-88900000D01*
X71205659Y-88899999D01*
X71200971Y-88846421D01*
X71200499Y-88835613D01*
X71200499Y-88002129D01*
X71200498Y-88002123D01*
X71200497Y-88002116D01*
X71194091Y-87942517D01*
X71160901Y-87853531D01*
X71143797Y-87807671D01*
X71143793Y-87807664D01*
X71057547Y-87692455D01*
X71057544Y-87692452D01*
X70942335Y-87606206D01*
X70942328Y-87606202D01*
X70807482Y-87555908D01*
X70807483Y-87555908D01*
X70747883Y-87549501D01*
X70747881Y-87549500D01*
X70747873Y-87549500D01*
X70747865Y-87549500D01*
X69914380Y-87549500D01*
X69903573Y-87549028D01*
X69877024Y-87546705D01*
X69850001Y-87544341D01*
X69849998Y-87544341D01*
X69796424Y-87549028D01*
X69785617Y-87549500D01*
X67152129Y-87549500D01*
X67152123Y-87549501D01*
X67092516Y-87555908D01*
X66957671Y-87606202D01*
X66957664Y-87606206D01*
X66842455Y-87692452D01*
X66842452Y-87692455D01*
X66756206Y-87807664D01*
X66756202Y-87807671D01*
X66705908Y-87942517D01*
X66700149Y-87996087D01*
X66699501Y-88002123D01*
X66699500Y-88002135D01*
X66699500Y-89797870D01*
X66699501Y-89797876D01*
X66705908Y-89857483D01*
X66756202Y-89992328D01*
X66756203Y-89992330D01*
X66833578Y-90095689D01*
X66857995Y-90161153D01*
X66843144Y-90229426D01*
X66833578Y-90244311D01*
X66756203Y-90347669D01*
X66756202Y-90347671D01*
X66705908Y-90482517D01*
X66700609Y-90531809D01*
X66699501Y-90542123D01*
X66699500Y-90542135D01*
X66699500Y-92337870D01*
X66699501Y-92337876D01*
X66705908Y-92397483D01*
X66756202Y-92532328D01*
X66756203Y-92532330D01*
X66833578Y-92635689D01*
X66857995Y-92701153D01*
X66843144Y-92769426D01*
X66833578Y-92784311D01*
X66756203Y-92887669D01*
X66756202Y-92887671D01*
X66705908Y-93022517D01*
X66699501Y-93082116D01*
X66699501Y-93082123D01*
X66699500Y-93082135D01*
X66699500Y-94877870D01*
X66699501Y-94877876D01*
X66705908Y-94937483D01*
X66756202Y-95072328D01*
X66756203Y-95072330D01*
X66833578Y-95175689D01*
X66857995Y-95241153D01*
X66843144Y-95309426D01*
X66833578Y-95324311D01*
X66756203Y-95427669D01*
X66756202Y-95427671D01*
X66705908Y-95562517D01*
X66699501Y-95622116D01*
X66699501Y-95622123D01*
X66699500Y-95622135D01*
X66699500Y-97417870D01*
X66699501Y-97417876D01*
X66705908Y-97477483D01*
X66756202Y-97612328D01*
X66756203Y-97612330D01*
X66756204Y-97612331D01*
X66832873Y-97714748D01*
X66833578Y-97715689D01*
X66857995Y-97781153D01*
X66843144Y-97849426D01*
X66833578Y-97864311D01*
X66756203Y-97967669D01*
X66756202Y-97967671D01*
X66705908Y-98102517D01*
X66699501Y-98162116D01*
X66699501Y-98162123D01*
X66699500Y-98162135D01*
X66699500Y-99957870D01*
X66699501Y-99957876D01*
X66705908Y-100017483D01*
X66756202Y-100152328D01*
X66756203Y-100152330D01*
X66833578Y-100255689D01*
X66857995Y-100321153D01*
X66843144Y-100389426D01*
X66833578Y-100404311D01*
X66756203Y-100507669D01*
X66756202Y-100507671D01*
X66705908Y-100642517D01*
X66699501Y-100702116D01*
X66699501Y-100702123D01*
X66699500Y-100702135D01*
X66699500Y-102497870D01*
X66699501Y-102497876D01*
X66705908Y-102557483D01*
X66756202Y-102692328D01*
X66756203Y-102692330D01*
X66833578Y-102795689D01*
X66857995Y-102861153D01*
X66843144Y-102929426D01*
X66833578Y-102944311D01*
X66756203Y-103047669D01*
X66756202Y-103047671D01*
X66705908Y-103182517D01*
X66699501Y-103242116D01*
X66699501Y-103242123D01*
X66699500Y-103242135D01*
X66699500Y-105037870D01*
X66699501Y-105037876D01*
X66705908Y-105097483D01*
X66756202Y-105232328D01*
X66756203Y-105232330D01*
X66833578Y-105335689D01*
X66857995Y-105401153D01*
X66843144Y-105469426D01*
X66833578Y-105484311D01*
X66756203Y-105587669D01*
X66756202Y-105587671D01*
X66705908Y-105722517D01*
X66699501Y-105782116D01*
X66699501Y-105782123D01*
X66699500Y-105782135D01*
X66699500Y-107577870D01*
X66699501Y-107577876D01*
X66705908Y-107637483D01*
X66756202Y-107772328D01*
X66756203Y-107772330D01*
X66833578Y-107875689D01*
X66857995Y-107941153D01*
X66843144Y-108009426D01*
X66833578Y-108024311D01*
X66756203Y-108127669D01*
X66756202Y-108127671D01*
X66705908Y-108262517D01*
X66699501Y-108322116D01*
X66699501Y-108322123D01*
X66699500Y-108322135D01*
X66699500Y-110117870D01*
X66699501Y-110117876D01*
X66705908Y-110177483D01*
X66756202Y-110312328D01*
X66756203Y-110312330D01*
X66756204Y-110312331D01*
X66819190Y-110396470D01*
X66833578Y-110415689D01*
X66857995Y-110481153D01*
X66843144Y-110549426D01*
X66833578Y-110564311D01*
X66756203Y-110667669D01*
X66756202Y-110667671D01*
X66705908Y-110802517D01*
X66699501Y-110862116D01*
X66699501Y-110862123D01*
X66699500Y-110862135D01*
X66699500Y-112657870D01*
X66699501Y-112657876D01*
X66705908Y-112717483D01*
X66756202Y-112852328D01*
X66756203Y-112852330D01*
X66833578Y-112955689D01*
X66857995Y-113021153D01*
X66843144Y-113089426D01*
X66833578Y-113104311D01*
X66756203Y-113207669D01*
X66756202Y-113207671D01*
X66705908Y-113342517D01*
X66699501Y-113402116D01*
X66699501Y-113402123D01*
X66699500Y-113402135D01*
X66699500Y-115197870D01*
X66699501Y-115197876D01*
X66705908Y-115257483D01*
X66756202Y-115392328D01*
X66756203Y-115392330D01*
X66833578Y-115495689D01*
X66857995Y-115561153D01*
X66843144Y-115629426D01*
X66833578Y-115644311D01*
X66756203Y-115747669D01*
X66756202Y-115747671D01*
X66705908Y-115882517D01*
X66699501Y-115942116D01*
X66699501Y-115942123D01*
X66699500Y-115942135D01*
X66699500Y-117737870D01*
X66699501Y-117737876D01*
X66705908Y-117797483D01*
X66756202Y-117932328D01*
X66756203Y-117932330D01*
X66833578Y-118035689D01*
X66857995Y-118101153D01*
X66843144Y-118169426D01*
X66833578Y-118184309D01*
X66833265Y-118184729D01*
X66756203Y-118287669D01*
X66756202Y-118287671D01*
X66705908Y-118422517D01*
X66699501Y-118482116D01*
X66699501Y-118482123D01*
X66699500Y-118482135D01*
X66699500Y-120277870D01*
X66699501Y-120277876D01*
X66705908Y-120337483D01*
X66756202Y-120472328D01*
X66756203Y-120472330D01*
X66833578Y-120575689D01*
X66857995Y-120641153D01*
X66843144Y-120709426D01*
X66833578Y-120724311D01*
X66756203Y-120827669D01*
X66756202Y-120827671D01*
X66705908Y-120962517D01*
X66699501Y-121022116D01*
X66699501Y-121022123D01*
X66699500Y-121022135D01*
X66699500Y-122817870D01*
X66699501Y-122817876D01*
X66705908Y-122877483D01*
X66756202Y-123012328D01*
X66756203Y-123012330D01*
X66833578Y-123115689D01*
X66857995Y-123181153D01*
X66843144Y-123249426D01*
X66833578Y-123264311D01*
X66756203Y-123367669D01*
X66756202Y-123367671D01*
X66705908Y-123502517D01*
X66699501Y-123562116D01*
X66699501Y-123562123D01*
X66699500Y-123562135D01*
X66699500Y-125357870D01*
X66699501Y-125357876D01*
X66705908Y-125417483D01*
X66756202Y-125552328D01*
X66756203Y-125552330D01*
X66833578Y-125655689D01*
X66857995Y-125721153D01*
X66843144Y-125789426D01*
X66833578Y-125804311D01*
X66756203Y-125907669D01*
X66756202Y-125907671D01*
X66705908Y-126042517D01*
X66699501Y-126102116D01*
X66699501Y-126102123D01*
X66699500Y-126102135D01*
X66699500Y-127897870D01*
X66699501Y-127897876D01*
X66705908Y-127957483D01*
X66756202Y-128092328D01*
X66756203Y-128092330D01*
X66756204Y-128092331D01*
X66830026Y-128190945D01*
X66833578Y-128195689D01*
X66857995Y-128261153D01*
X66843144Y-128329426D01*
X66833578Y-128344311D01*
X66756203Y-128447669D01*
X66756202Y-128447671D01*
X66705908Y-128582517D01*
X66699867Y-128638716D01*
X66699501Y-128642123D01*
X66699500Y-128642135D01*
X66699500Y-130437870D01*
X66699501Y-130437876D01*
X66705908Y-130497483D01*
X66756202Y-130632328D01*
X66756203Y-130632330D01*
X66833578Y-130735689D01*
X66857995Y-130801153D01*
X66843144Y-130869426D01*
X66833578Y-130884311D01*
X66756203Y-130987669D01*
X66756202Y-130987671D01*
X66705908Y-131122517D01*
X66699501Y-131182116D01*
X66699501Y-131182123D01*
X66699500Y-131182135D01*
X66699500Y-132977870D01*
X66699501Y-132977876D01*
X66705908Y-133037483D01*
X66756202Y-133172328D01*
X66756203Y-133172330D01*
X66833578Y-133275689D01*
X66857995Y-133341153D01*
X66843144Y-133409426D01*
X66833578Y-133424311D01*
X66756203Y-133527669D01*
X66756202Y-133527671D01*
X66705908Y-133662517D01*
X66699501Y-133722116D01*
X66699501Y-133722123D01*
X66699500Y-133722135D01*
X66699500Y-135517870D01*
X66699501Y-135517876D01*
X66705908Y-135577483D01*
X66756202Y-135712328D01*
X66756203Y-135712330D01*
X66833578Y-135815689D01*
X66857995Y-135881153D01*
X66843144Y-135949426D01*
X66833578Y-135964311D01*
X66756203Y-136067669D01*
X66756202Y-136067671D01*
X66705908Y-136202517D01*
X66702699Y-136232372D01*
X66699501Y-136262123D01*
X66699500Y-136262135D01*
X66699500Y-138057870D01*
X60960000Y-138057870D01*
X60960000Y-80134000D01*
X60979685Y-80066961D01*
X61032489Y-80021206D01*
X61084000Y-80010000D01*
X114176000Y-80010000D01*
X114243039Y-80029685D01*
G37*
%TD.AperFunction*%
%TD*%
M02*
