%TF.GenerationSoftware,KiCad,Pcbnew,8.0.0*%
%TF.CreationDate,2024-03-27T17:24:57-03:00*%
%TF.ProjectId,Ponderada_S6,506f6e64-6572-4616-9461-5f53362e6b69,rev?*%
%TF.SameCoordinates,Original*%
%TF.FileFunction,Soldermask,Top*%
%TF.FilePolarity,Negative*%
%FSLAX46Y46*%
G04 Gerber Fmt 4.6, Leading zero omitted, Abs format (unit mm)*
G04 Created by KiCad (PCBNEW 8.0.0) date 2024-03-27 17:24:57*
%MOMM*%
%LPD*%
G01*
G04 APERTURE LIST*
G04 Aperture macros list*
%AMRoundRect*
0 Rectangle with rounded corners*
0 $1 Rounding radius*
0 $2 $3 $4 $5 $6 $7 $8 $9 X,Y pos of 4 corners*
0 Add a 4 corners polygon primitive as box body*
4,1,4,$2,$3,$4,$5,$6,$7,$8,$9,$2,$3,0*
0 Add four circle primitives for the rounded corners*
1,1,$1+$1,$2,$3*
1,1,$1+$1,$4,$5*
1,1,$1+$1,$6,$7*
1,1,$1+$1,$8,$9*
0 Add four rect primitives between the rounded corners*
20,1,$1+$1,$2,$3,$4,$5,0*
20,1,$1+$1,$4,$5,$6,$7,0*
20,1,$1+$1,$6,$7,$8,$9,0*
20,1,$1+$1,$8,$9,$2,$3,0*%
G04 Aperture macros list end*
%ADD10R,1.800000X1.800000*%
%ADD11C,1.800000*%
%ADD12C,1.400000*%
%ADD13O,1.400000X1.400000*%
%ADD14RoundRect,0.150000X0.150000X0.275000X-0.150000X0.275000X-0.150000X-0.275000X0.150000X-0.275000X0*%
%ADD15RoundRect,0.187500X0.187500X0.362500X-0.187500X0.362500X-0.187500X-0.362500X0.187500X-0.362500X0*%
%ADD16R,1.050000X1.500000*%
%ADD17O,1.050000X1.500000*%
%ADD18O,1.800000X1.800000*%
%ADD19O,1.500000X1.500000*%
%ADD20O,1.700000X1.700000*%
%ADD21R,3.500000X1.700000*%
%ADD22R,1.700000X1.700000*%
%ADD23R,1.700000X3.500000*%
G04 APERTURE END LIST*
D10*
%TO.C,D1*%
X100330000Y-109220000D03*
D11*
X97790000Y-109220000D03*
%TD*%
D12*
%TO.C,R3*%
X105410000Y-135890000D03*
D13*
X107950000Y-135890000D03*
%TD*%
D14*
%TO.C,J1*%
X104140000Y-128875000D03*
D15*
X105415000Y-125250000D03*
X102865000Y-125250000D03*
%TD*%
D12*
%TO.C,R2*%
X96520000Y-124460000D03*
D13*
X99060000Y-124460000D03*
%TD*%
D12*
%TO.C,R1*%
X97790000Y-116840000D03*
D13*
X95250000Y-116840000D03*
%TD*%
D16*
%TO.C,Q1*%
X97790000Y-134620000D03*
D17*
X99060000Y-134620000D03*
X100330000Y-134620000D03*
%TD*%
D18*
%TO.C,U1*%
X76015000Y-89030000D03*
D19*
X76315000Y-92060000D03*
X81165000Y-92060000D03*
D18*
X81465000Y-89030000D03*
D20*
X69850000Y-88900000D03*
D21*
X68950000Y-88900000D03*
D20*
X69850000Y-91440000D03*
D21*
X68950000Y-91440000D03*
D22*
X69850000Y-93980000D03*
D21*
X68950000Y-93980000D03*
D20*
X69850000Y-96520000D03*
D21*
X68950000Y-96520000D03*
D20*
X69850000Y-99060000D03*
D21*
X68950000Y-99060000D03*
D20*
X69850000Y-101600000D03*
D21*
X68950000Y-101600000D03*
D20*
X69850000Y-104140000D03*
D21*
X68950000Y-104140000D03*
D22*
X69850000Y-106680000D03*
D21*
X68950000Y-106680000D03*
D20*
X69850000Y-109220000D03*
D21*
X68950000Y-109220000D03*
D20*
X69850000Y-111760000D03*
D21*
X68950000Y-111760000D03*
D20*
X69850000Y-114300000D03*
D21*
X68950000Y-114300000D03*
D20*
X69850000Y-116840000D03*
D21*
X68950000Y-116840000D03*
D22*
X69850000Y-119380000D03*
D21*
X68950000Y-119380000D03*
D20*
X69850000Y-121920000D03*
D21*
X68950000Y-121920000D03*
D20*
X69850000Y-124460000D03*
D21*
X68950000Y-124460000D03*
D20*
X69850000Y-127000000D03*
D21*
X68950000Y-127000000D03*
D20*
X69850000Y-129540000D03*
D21*
X68950000Y-129540000D03*
D22*
X69850000Y-132080000D03*
D21*
X68950000Y-132080000D03*
D20*
X69850000Y-134620000D03*
D21*
X68950000Y-134620000D03*
D20*
X69850000Y-137160000D03*
D21*
X68950000Y-137160000D03*
D20*
X87630000Y-137160000D03*
D21*
X88530000Y-137160000D03*
D20*
X87630000Y-134620000D03*
D21*
X88530000Y-134620000D03*
D22*
X87630000Y-132080000D03*
D21*
X88530000Y-132080000D03*
D20*
X87630000Y-129540000D03*
D21*
X88530000Y-129540000D03*
D20*
X87630000Y-127000000D03*
D21*
X88530000Y-127000000D03*
D20*
X87630000Y-124460000D03*
D21*
X88530000Y-124460000D03*
D20*
X87630000Y-121920000D03*
D21*
X88530000Y-121920000D03*
D22*
X87630000Y-119380000D03*
D21*
X88530000Y-119380000D03*
D20*
X87630000Y-116840000D03*
D21*
X88530000Y-116840000D03*
D20*
X87630000Y-114300000D03*
D21*
X88530000Y-114300000D03*
D20*
X87630000Y-111760000D03*
D21*
X88530000Y-111760000D03*
D20*
X87630000Y-109220000D03*
D21*
X88530000Y-109220000D03*
D22*
X87630000Y-106680000D03*
D21*
X88530000Y-106680000D03*
D20*
X87630000Y-104140000D03*
D21*
X88530000Y-104140000D03*
D20*
X87630000Y-101600000D03*
D21*
X88530000Y-101600000D03*
D20*
X87630000Y-99060000D03*
D21*
X88530000Y-99060000D03*
D20*
X87630000Y-96520000D03*
D21*
X88530000Y-96520000D03*
D22*
X87630000Y-93980000D03*
D21*
X88530000Y-93980000D03*
D20*
X87630000Y-91440000D03*
D21*
X88530000Y-91440000D03*
D20*
X87630000Y-88900000D03*
D21*
X88530000Y-88900000D03*
D20*
X76200000Y-136930000D03*
D23*
X76200000Y-137830000D03*
D22*
X78740000Y-136930000D03*
D23*
X78740000Y-137830000D03*
D20*
X81280000Y-136930000D03*
D23*
X81280000Y-137830000D03*
%TD*%
M02*
